<svg width="62" height="42" viewBox="0 0 62 42" fill="none" xmlns="http://www.w3.org/2000/svg">
<path d="M60 18.0128V18.03V18.0554V18.0808V18.1064V18.1321V18.158V18.1839V18.21V18.2362V18.2625V18.289V18.3155V18.3422V18.369V18.3959V18.4229V18.4501V18.4773V18.5047V18.5322V18.5598V18.5875V18.6153V18.6432V18.6713V18.6994V18.7277V18.756V18.7845V18.8131V18.8417V18.8705V18.8994V18.9284V18.9575V18.9867V19.016V19.0454V19.0749V19.1045V19.1342V19.164V19.1939V19.2239V19.254V19.2842V19.3144V19.3448V19.3753V19.4058V19.4365V19.4672V19.4981V19.529V19.56V19.5911V19.6223V19.6536V19.685V19.7164V19.748V19.7796V19.8113V19.8431V19.875V19.9069V19.939V19.9711V20.0033V20.0356V20.068V20.1004V20.1329V20.1655V20.1982V20.231V20.2638V20.2967V20.3297V20.3627V20.3958V20.429V20.4623V20.4956V20.529V20.5625V20.596V20.6296V20.6633V20.6971V20.7309V20.7648V20.7987V20.8327V20.8668V20.9009V20.9351V20.9693V21.0037V21.038V21.0725V21.107V21.1415V21.1761V21.2108V21.2455V21.2803V21.3151V21.35V21.3849V21.4199V21.455V21.4901V21.5252V21.5604V21.5956V21.6309V21.6663V21.7017V21.7371V21.7726V21.8081V21.8437V21.8793V21.915V21.9507V21.9864V22.0222V22.058V22.0939V22.1298V22.1658V22.2017V22.2378V22.2738V22.3099V22.346V22.3822V22.4184V22.4546V22.4909V22.5272V22.5635V22.5999V22.6363V22.6727V22.7092V22.7456V22.7822V22.8187V22.8552V22.8918V22.9284V22.9651V23.0017V23.0384V23.0751V23.1118V23.1486V23.1854V23.2221V23.2589V23.2958V23.3326V23.3695V23.4063V23.4432V23.4801V23.5171V23.554V23.5909V23.6279V23.6649V23.7019V23.7388V23.7759V23.8129V23.8499V23.8869V23.9239V23.961V23.998V24.0351V24.0721V24.1092V24.1463V24.1833V24.2204V24.2575V24.2945V24.3316V24.3687V24.4057V24.4428V24.4799V24.5169V24.554V24.591V24.6281V24.6651V24.7021V24.7392V24.7762V24.8132V24.8502V24.8872V24.9242V24.9611V24.9981V25.035V25.0719V25.1089V25.1458V25.1826V25.2195V25.2564V25.2932V25.33V25.3668V25.4036V25.4403V25.4771V25.5138V25.5505V25.5872V25.6238V25.6604V25.697V25.7336V25.7701V25.8067V25.8432V25.8796V25.9161V25.9525V25.9888V26.0252V26.0615V26.0978V26.134V26.1703V26.2065V26.2426V26.2787V26.3148V26.3508V26.3868V26.4228V26.4587V26.4946V26.5305V26.5663V26.6021V26.6378V26.6735V26.7091V26.7447V26.7803V26.8158V26.8512V26.8866V26.922V26.9573V26.9926V27.0278V27.063V27.0981V27.1332V27.1682V27.2032V27.2381V27.2729V27.3077V27.3425V27.3772V27.4118V27.4464V27.4809V27.5154V27.5498V27.5842V27.6184V27.6527V27.6868V27.7209V27.755V27.7889V27.8229V27.8567V27.8905V27.9242V27.9578V27.9914V28.0249V28.0584V28.0917V28.125V28.1583V28.1914V28.2245V28.2575V28.2905V28.3233V28.3561V28.3889V28.4215V28.4541V28.4865V28.5189V28.5513V28.5835V28.6157V28.6478V28.6798V28.7117V28.7435V28.7753V28.807V28.8386V28.8701V28.9015V28.9328V28.9641V28.9952V29.0263V29.0573V29.0881V29.1189V29.1496V29.1802V29.2108V29.2412V29.2715V29.3018V29.3319V29.3619V29.3919V29.4217V29.4515V29.4812V29.5107V29.5402V29.5695V29.5988V29.6279V29.657V29.6859V29.7147V29.7435V29.7721V29.8006V29.8291V29.8574V29.8856V29.9137V29.9416V29.9695V29.9973V30.0249V30.0525V30.0799V30.1072V30.1344V30.1615V30.1885V30.2153V30.2421C60 31.4606 59.4216 32.665 58.0258 33.875C56.6029 35.1086 54.4505 36.2291 51.6735 37.1653C46.1336 39.0331 38.6166 40 31 40C23.3834 40 15.8664 39.0331 10.3265 37.1653C7.5495 36.2291 5.39708 35.1086 3.97416 33.875C2.57844 32.665 2 31.4606 2 30.2421V30.1531V30.0646V29.9764V29.8885V29.8011V29.714V29.6273V29.5409V29.4549V29.3693V29.284V29.1991V29.1145V29.0303V28.9465V28.8631V28.7799V28.6972V28.6148V28.5328V28.4511V28.3697V28.2888V28.2081V28.1279V28.0479V27.9684V27.8891V27.8103V27.7318V27.6536V27.5758V27.4983V27.4211V27.3443V27.2679V27.1918V27.116V27.0406V26.9655V26.8908V26.8164V26.7423V26.6686V26.5952V26.5221V26.4494V26.377V26.305V26.2333V26.1619V26.0908V26.0201V25.9497V25.8796V25.8099V25.7405V25.6714V25.6027V25.5342V25.4661V25.3983V25.3309V25.2637V25.1969V25.1304V25.0643V24.9984V24.9329V24.8676V24.8027V24.7382V24.6739V24.6099V24.5463V24.483V24.4199V24.3572V24.2948V24.2327V24.171V24.1095V24.0483V23.9875V23.9269V23.8667V23.8068V23.7471V23.6878V23.6288V23.57V23.5116V23.4535V23.3957V23.3381V23.2809V23.224V23.1673V23.111V23.0549V22.9992V22.9437V22.8885V22.8337V22.7791V22.7248V22.6708V22.6171V22.5636V22.5105V22.4576V22.405V22.3528V22.3008V22.249V22.1976V22.1464V22.0956V22.045V21.9946V21.9446V21.8948V21.8454V21.7961V21.7472V21.6986V21.6502V21.6021V21.5542V21.5066V21.4593V21.4123V21.3656V21.3191V21.2729V21.2269V21.1812V21.1358V21.0906V21.0457V21.0011V20.9567V20.9126V20.8688V20.8252V20.7819V20.7388V20.696V20.6534V20.6111V20.5691V20.5273V20.4858V20.4445V20.4035V20.3627V20.3221V20.2819V20.2418V20.2021V20.1625V20.1233V20.0842V20.0454V20.0069V19.9686V19.9305V19.8927V19.8551V19.8178V19.7807V19.7438V19.7072V19.6708V19.6347V19.5988V19.5631V19.5277V19.4925V19.4575V19.4228V19.3883V19.354V19.3199V19.2861V19.2525V19.2192V19.1861V19.1531V19.1205V19.088V19.0558V19.0238V18.992V18.9604V18.9291V18.898V18.8671V18.8364V18.8059V18.7757V18.7456V18.7158V18.6862V18.6568V18.6276V18.5987V18.5699V18.5414V18.513V18.4849V18.457V18.4293V18.4018V18.3745V18.3474V18.3205V18.2939V18.2674V18.2411V18.2151V18.1892V18.1635V18.138V18.1128V18.0877V18.0628V18.0381V18.0137V18.0128H60Z" fill="#007369" stroke="black" stroke-width="4"/>
<path d="M60 16C60 19.2859 57.3775 22.7625 52.003 25.5365C46.7308 28.2576 39.3083 30 31 30C22.6917 30 15.2692 28.2576 9.99698 25.5365C4.62248 22.7625 2 19.2859 2 16C2 12.7141 4.62248 9.23746 9.99698 6.46353C15.2692 3.7424 22.6917 2 31 2C39.3083 2 46.7308 3.7424 52.003 6.46353C57.3775 9.23746 60 12.7141 60 16Z" fill="#00C9B8" stroke="black" stroke-width="4"/>
<path d="M33.6509 21.4189H25.5069C25.3043 21.4189 25.1667 21.3779 25.0942 21.2959C25.0353 21.2036 25.0338 21.0601 25.0897 20.8652L27.9475 10.8989C28.0034 10.7041 28.0857 10.5656 28.1946 10.4836C28.317 10.3913 28.4796 10.3452 28.6823 10.3452H31.1623C31.3649 10.3452 31.4957 10.3913 31.5546 10.4836C31.6271 10.5656 31.6354 10.7041 31.5795 10.8989L29.3965 18.5121H31.5885L32.3029 16.0205C32.3588 15.8257 32.4411 15.6872 32.55 15.6052C32.6724 15.5129 32.835 15.4668 33.0377 15.4668H35.3577C35.5603 15.4668 35.6911 15.5129 35.75 15.6052C35.8225 15.6872 35.8308 15.8257 35.7749 16.0205L34.3857 20.8652C34.3298 21.0601 34.2407 21.2036 34.1182 21.2959C34.0094 21.3779 33.8536 21.4189 33.6509 21.4189Z" fill="black"/>
</svg>
