<svg width="400" height="700" viewBox="0 0 400 700" fill="none" xmlns="http://www.w3.org/2000/svg">
<rect x="2" y="2" width="396" height="40" rx="10" fill="#EE5007" stroke="black" stroke-width="4"/>
<rect x="12" y="42" width="376" height="656" rx="2" fill="#FFD039" stroke="black" stroke-width="4"/>
<path d="M42 104C42 85.2223 57.2223 70 76 70H324C342.778 70 358 85.2223 358 104V356H42V104Z" fill="#7CDBD5" stroke="black" stroke-width="4"/>
<rect x="42" y="100" width="316" height="12" rx="2" fill="#B6B5B9" stroke="black" stroke-width="4"/>
<mask id="path-5-inside-1_2_10" fill="white">
<path d="M38 417H364V449C364 455.627 358.627 461 352 461H50C43.3726 461 38 455.627 38 449V417Z"/>
</mask>
<path d="M38 417H364V449C364 455.627 358.627 461 352 461H50C43.3726 461 38 455.627 38 449V417Z" fill="#4C0EB1"/>
<path d="M38 417H364H38ZM368 449C368 457.837 360.837 465 352 465H50C41.1634 465 34 457.837 34 449H42C42 453.418 45.5817 457 50 457H352C356.418 457 360 453.418 360 449H368ZM50 465C41.1634 465 34 457.837 34 449V417H42V449C42 453.418 45.5817 457 50 457V465ZM368 417V449C368 457.837 360.837 465 352 465V457C356.418 457 360 453.418 360 449V417H368Z" fill="black" mask="url(#path-5-inside-1_2_10)"/>
<path d="M66.6424 372H335.358C339.243 372 342.776 374.25 344.419 377.771L361.219 413.771C364.313 420.401 359.474 428 352.158 428H49.8423C42.5262 428 37.6866 420.401 40.7805 413.771L57.5805 377.771C59.2235 374.25 62.7571 372 66.6424 372Z" fill="#9351FF" stroke="black" stroke-width="4"/>
<path d="M137 397.013V397.03V397.055V397.081V397.106V397.132V397.158V397.184V397.21V397.236V397.263V397.289V397.316V397.342V397.369V397.396V397.423V397.45V397.477V397.505V397.532V397.56V397.587V397.615V397.643V397.671V397.699V397.728V397.756V397.784V397.813V397.842V397.871V397.899V397.928V397.957V397.987V398.016V398.045V398.075V398.104V398.134V398.164V398.194V398.224V398.254V398.284V398.314V398.345V398.375V398.406V398.436V398.467V398.498V398.529V398.56V398.591V398.622V398.654V398.685V398.716V398.748V398.78V398.811V398.843V398.875V398.907V398.939V398.971V399.003V399.036V399.068V399.1V399.133V399.166V399.198V399.231V399.264V399.297V399.33V399.363V399.396V399.429V399.462V399.496V399.529V399.562V399.596V399.63V399.663V399.697V399.731V399.765V399.799V399.833V399.867V399.901V399.935V399.969V400.004V400.038V400.072V400.107V400.142V400.176V400.211V400.245V400.28V400.315V400.35V400.385V400.42V400.455V400.49V400.525V400.56V400.596V400.631V400.666V400.702V400.737V400.773V400.808V400.844V400.879V400.915V400.951V400.986V401.022V401.058V401.094V401.13V401.166V401.202V401.238V401.274V401.31V401.346V401.382V401.418V401.455V401.491V401.527V401.564V401.6V401.636V401.673V401.709V401.746V401.782V401.819V401.855V401.892V401.928V401.965V402.002V402.038V402.075V402.112V402.149V402.185V402.222V402.259V402.296V402.333V402.369V402.406V402.443V402.48V402.517V402.554V402.591V402.628V402.665V402.702V402.739V402.776V402.813V402.85V402.887V402.924V402.961V402.998V403.035V403.072V403.109V403.146V403.183V403.22V403.257V403.295V403.332V403.369V403.406V403.443V403.48V403.517V403.554V403.591V403.628V403.665V403.702V403.739V403.776V403.813V403.85V403.887V403.924V403.961V403.998V404.035V404.072V404.109V404.146V404.183V404.22V404.256V404.293V404.33V404.367V404.404V404.44V404.477V404.514V404.55V404.587V404.624V404.66V404.697V404.734V404.77V404.807V404.843V404.88V404.916V404.952V404.989V405.025V405.062V405.098V405.134V405.17V405.206V405.243V405.279V405.315V405.351V405.387V405.423V405.459V405.495V405.53V405.566V405.602V405.638V405.673V405.709V405.745V405.78V405.816V405.851V405.887V405.922V405.957V405.993V406.028V406.063V406.098V406.133V406.168V406.203V406.238V406.273V406.308V406.343V406.377V406.412V406.446V406.481V406.515V406.55V406.584V406.618V406.653V406.687V406.721V406.755V406.789V406.823V406.857V406.89V406.924V406.958V406.991V407.025V407.058V407.092V407.125V407.158V407.191V407.225V407.258V407.29V407.323V407.356V407.389V407.421V407.454V407.487V407.519V407.551V407.584V407.616V407.648V407.68V407.712V407.744V407.775V407.807V407.839V407.87V407.901V407.933V407.964V407.995V408.026V408.057V408.088V408.119V408.15V408.18V408.211V408.241V408.272V408.302V408.332V408.362V408.392V408.422V408.451V408.481V408.511V408.54V408.57V408.599V408.628V408.657V408.686V408.715V408.743V408.772V408.801V408.829V408.857V408.886V408.914V408.942V408.97V408.997V409.025V409.052V409.08V409.107V409.134V409.162V409.188V409.215V409.242C137 410.461 136.422 411.665 135.026 412.875C133.603 414.109 131.45 415.229 128.674 416.165C123.134 418.033 115.617 419 108 419C100.383 419 92.8664 418.033 87.3265 416.165C84.5495 415.229 82.3971 414.109 80.9742 412.875C79.5784 411.665 79 410.461 79 409.242V409.153V409.065V408.976V408.889V408.801V408.714V408.627V408.541V408.455V408.369V408.284V408.199V408.115V408.03V407.947V407.863V407.78V407.697V407.615V407.533V407.451V407.37V407.289V407.208V407.128V407.048V406.968V406.889V406.81V406.732V406.654V406.576V406.498V406.421V406.344V406.268V406.192V406.116V406.041V405.966V405.891V405.816V405.742V405.669V405.595V405.522V405.449V405.377V405.305V405.233V405.162V405.091V405.02V404.95V404.88V404.81V404.74V404.671V404.603V404.534V404.466V404.398V404.331V404.264V404.197V404.13V404.064V403.998V403.933V403.868V403.803V403.738V403.674V403.61V403.546V403.483V403.42V403.357V403.295V403.233V403.171V403.109V403.048V402.987V402.927V402.867V402.807V402.747V402.688V402.629V402.57V402.512V402.453V402.396V402.338V402.281V402.224V402.167V402.111V402.055V401.999V401.944V401.889V401.834V401.779V401.725V401.671V401.617V401.564V401.51V401.458V401.405V401.353V401.301V401.249V401.198V401.146V401.096V401.045V400.995V400.945V400.895V400.845V400.796V400.747V400.699V400.65V400.602V400.554V400.507V400.459V400.412V400.366V400.319V400.273V400.227V400.181V400.136V400.091V400.046V400.001V399.957V399.913V399.869V399.825V399.782V399.739V399.696V399.653V399.611V399.569V399.527V399.486V399.444V399.403V399.363V399.322V399.282V399.242V399.202V399.163V399.123V399.084V399.045V399.007V398.969V398.931V398.893V398.855V398.818V398.781V398.744V398.707V398.671V398.635V398.599V398.563V398.528V398.492V398.458V398.423V398.388V398.354V398.32V398.286V398.253V398.219V398.186V398.153V398.12V398.088V398.056V398.024V397.992V397.96V397.929V397.898V397.867V397.836V397.806V397.776V397.746V397.716V397.686V397.657V397.628V397.599V397.57V397.541V397.513V397.485V397.457V397.429V397.402V397.375V397.347V397.321V397.294V397.267V397.241V397.215V397.189V397.164V397.138V397.113V397.088V397.063V397.038V397.014V397.013H137Z" fill="#007369" stroke="black" stroke-width="4"/>
<path d="M137 395C137 398.286 134.378 401.763 129.003 404.536C123.731 407.258 116.308 409 108 409C99.6917 409 92.2692 407.258 86.997 404.536C81.6225 401.763 79 398.286 79 395C79 391.714 81.6225 388.237 86.997 385.464C92.2692 382.742 99.6917 381 108 381C116.308 381 123.731 382.742 129.003 385.464C134.378 388.237 137 391.714 137 395Z" fill="#00C9B8" stroke="black" stroke-width="4"/>
<path d="M110.651 400.419H102.507C102.304 400.419 102.167 400.378 102.094 400.296C102.035 400.204 102.034 400.06 102.09 399.865L104.948 389.899C105.003 389.704 105.086 389.566 105.195 389.484C105.317 389.391 105.48 389.345 105.682 389.345H108.162C108.365 389.345 108.496 389.391 108.555 389.484C108.627 389.566 108.635 389.704 108.58 389.899L106.396 397.512H108.588L109.303 395.02C109.359 394.826 109.441 394.687 109.55 394.605C109.672 394.513 109.835 394.467 110.038 394.467H112.358C112.56 394.467 112.691 394.513 112.75 394.605C112.822 394.687 112.831 394.826 112.775 395.02L111.386 399.865C111.33 400.06 111.241 400.204 111.118 400.296C111.009 400.378 110.854 400.419 110.651 400.419Z" fill="black"/>
<path d="M215 397.013V397.03V397.055V397.081V397.106V397.132V397.158V397.184V397.21V397.236V397.263V397.289V397.316V397.342V397.369V397.396V397.423V397.45V397.477V397.505V397.532V397.56V397.587V397.615V397.643V397.671V397.699V397.728V397.756V397.784V397.813V397.842V397.871V397.899V397.928V397.957V397.987V398.016V398.045V398.075V398.104V398.134V398.164V398.194V398.224V398.254V398.284V398.314V398.345V398.375V398.406V398.436V398.467V398.498V398.529V398.56V398.591V398.622V398.654V398.685V398.716V398.748V398.78V398.811V398.843V398.875V398.907V398.939V398.971V399.003V399.036V399.068V399.1V399.133V399.166V399.198V399.231V399.264V399.297V399.33V399.363V399.396V399.429V399.462V399.496V399.529V399.562V399.596V399.63V399.663V399.697V399.731V399.765V399.799V399.833V399.867V399.901V399.935V399.969V400.004V400.038V400.072V400.107V400.142V400.176V400.211V400.245V400.28V400.315V400.35V400.385V400.42V400.455V400.49V400.525V400.56V400.596V400.631V400.666V400.702V400.737V400.773V400.808V400.844V400.879V400.915V400.951V400.986V401.022V401.058V401.094V401.13V401.166V401.202V401.238V401.274V401.31V401.346V401.382V401.418V401.455V401.491V401.527V401.564V401.6V401.636V401.673V401.709V401.746V401.782V401.819V401.855V401.892V401.928V401.965V402.002V402.038V402.075V402.112V402.149V402.185V402.222V402.259V402.296V402.333V402.369V402.406V402.443V402.48V402.517V402.554V402.591V402.628V402.665V402.702V402.739V402.776V402.813V402.85V402.887V402.924V402.961V402.998V403.035V403.072V403.109V403.146V403.183V403.22V403.257V403.295V403.332V403.369V403.406V403.443V403.48V403.517V403.554V403.591V403.628V403.665V403.702V403.739V403.776V403.813V403.85V403.887V403.924V403.961V403.998V404.035V404.072V404.109V404.146V404.183V404.22V404.256V404.293V404.33V404.367V404.404V404.44V404.477V404.514V404.55V404.587V404.624V404.66V404.697V404.734V404.77V404.807V404.843V404.88V404.916V404.952V404.989V405.025V405.062V405.098V405.134V405.17V405.206V405.243V405.279V405.315V405.351V405.387V405.423V405.459V405.495V405.53V405.566V405.602V405.638V405.673V405.709V405.745V405.78V405.816V405.851V405.887V405.922V405.957V405.993V406.028V406.063V406.098V406.133V406.168V406.203V406.238V406.273V406.308V406.343V406.377V406.412V406.446V406.481V406.515V406.55V406.584V406.618V406.653V406.687V406.721V406.755V406.789V406.823V406.857V406.89V406.924V406.958V406.991V407.025V407.058V407.092V407.125V407.158V407.191V407.225V407.258V407.29V407.323V407.356V407.389V407.421V407.454V407.487V407.519V407.551V407.584V407.616V407.648V407.68V407.712V407.744V407.775V407.807V407.839V407.87V407.901V407.933V407.964V407.995V408.026V408.057V408.088V408.119V408.15V408.18V408.211V408.241V408.272V408.302V408.332V408.362V408.392V408.422V408.451V408.481V408.511V408.54V408.57V408.599V408.628V408.657V408.686V408.715V408.743V408.772V408.801V408.829V408.857V408.886V408.914V408.942V408.97V408.997V409.025V409.052V409.08V409.107V409.134V409.162V409.188V409.215V409.242C215 410.461 214.422 411.665 213.026 412.875C211.603 414.109 209.45 415.229 206.674 416.165C201.134 418.033 193.617 419 186 419C178.383 419 170.866 418.033 165.326 416.165C162.55 415.229 160.397 414.109 158.974 412.875C157.578 411.665 157 410.461 157 409.242V409.153V409.065V408.976V408.889V408.801V408.714V408.627V408.541V408.455V408.369V408.284V408.199V408.115V408.03V407.947V407.863V407.78V407.697V407.615V407.533V407.451V407.37V407.289V407.208V407.128V407.048V406.968V406.889V406.81V406.732V406.654V406.576V406.498V406.421V406.344V406.268V406.192V406.116V406.041V405.966V405.891V405.816V405.742V405.669V405.595V405.522V405.449V405.377V405.305V405.233V405.162V405.091V405.02V404.95V404.88V404.81V404.74V404.671V404.603V404.534V404.466V404.398V404.331V404.264V404.197V404.13V404.064V403.998V403.933V403.868V403.803V403.738V403.674V403.61V403.546V403.483V403.42V403.357V403.295V403.233V403.171V403.109V403.048V402.987V402.927V402.867V402.807V402.747V402.688V402.629V402.57V402.512V402.453V402.396V402.338V402.281V402.224V402.167V402.111V402.055V401.999V401.944V401.889V401.834V401.779V401.725V401.671V401.617V401.564V401.51V401.458V401.405V401.353V401.301V401.249V401.198V401.146V401.096V401.045V400.995V400.945V400.895V400.845V400.796V400.747V400.699V400.65V400.602V400.554V400.507V400.459V400.412V400.366V400.319V400.273V400.227V400.181V400.136V400.091V400.046V400.001V399.957V399.913V399.869V399.825V399.782V399.739V399.696V399.653V399.611V399.569V399.527V399.486V399.444V399.403V399.363V399.322V399.282V399.242V399.202V399.163V399.123V399.084V399.045V399.007V398.969V398.931V398.893V398.855V398.818V398.781V398.744V398.707V398.671V398.635V398.599V398.563V398.528V398.492V398.458V398.423V398.388V398.354V398.32V398.286V398.253V398.219V398.186V398.153V398.12V398.088V398.056V398.024V397.992V397.96V397.929V397.898V397.867V397.836V397.806V397.776V397.746V397.716V397.686V397.657V397.628V397.599V397.57V397.541V397.513V397.485V397.457V397.429V397.402V397.375V397.347V397.321V397.294V397.267V397.241V397.215V397.189V397.164V397.138V397.113V397.088V397.063V397.038V397.014V397.013H215Z" fill="#007369" stroke="black" stroke-width="4"/>
<path d="M215 395C215 398.286 212.378 401.763 207.003 404.536C201.731 407.258 194.308 409 186 409C177.692 409 170.269 407.258 164.997 404.536C159.622 401.763 157 398.286 157 395C157 391.714 159.622 388.237 164.997 385.464C170.269 382.742 177.692 381 186 381C194.308 381 201.731 382.742 207.003 385.464C212.378 388.237 215 391.714 215 395Z" fill="#00C9B8" stroke="black" stroke-width="4"/>
<path d="M185.928 392.114L185.364 394.082H186.564C186.841 394.082 187.047 394.016 187.181 393.882C187.318 393.739 187.416 393.564 187.475 393.359L187.625 392.836C187.684 392.631 187.684 392.462 187.627 392.329C187.572 392.185 187.406 392.114 187.128 392.114H185.928ZM182.971 400.419H180.507C180.304 400.419 180.167 400.378 180.094 400.296C180.035 400.204 180.034 400.06 180.09 399.865L182.948 389.899C183.003 389.704 183.086 389.566 183.195 389.484C183.317 389.391 183.48 389.345 183.682 389.345H189.01C190.205 389.345 190.957 389.586 191.267 390.068C191.59 390.54 191.643 391.155 191.426 391.914L191.223 392.621C191.099 393.052 190.924 393.421 190.697 393.729C190.484 394.026 190.193 394.241 189.824 394.375C190.382 394.436 190.782 394.662 191.022 395.051C191.273 395.441 191.306 395.959 191.121 396.605L190.186 399.865C190.13 400.06 190.041 400.204 189.918 400.296C189.809 400.378 189.654 400.419 189.451 400.419H186.971C186.768 400.419 186.631 400.378 186.558 400.296C186.499 400.204 186.498 400.06 186.554 399.865L187.228 397.512C187.293 397.286 187.292 397.122 187.226 397.02C187.173 396.907 187.034 396.851 186.81 396.851H184.57L183.706 399.865C183.65 400.06 183.561 400.204 183.438 400.296C183.329 400.378 183.174 400.419 182.971 400.419Z" fill="black"/>
<path d="M323 397.013V397.03V397.055V397.081V397.106V397.132V397.158V397.184V397.21V397.236V397.263V397.289V397.316V397.342V397.369V397.396V397.423V397.45V397.477V397.505V397.532V397.56V397.587V397.615V397.643V397.671V397.699V397.728V397.756V397.784V397.813V397.842V397.871V397.899V397.928V397.957V397.987V398.016V398.045V398.075V398.104V398.134V398.164V398.194V398.224V398.254V398.284V398.314V398.345V398.375V398.406V398.436V398.467V398.498V398.529V398.56V398.591V398.622V398.654V398.685V398.716V398.748V398.78V398.811V398.843V398.875V398.907V398.939V398.971V399.003V399.036V399.068V399.1V399.133V399.166V399.198V399.231V399.264V399.297V399.33V399.363V399.396V399.429V399.462V399.496V399.529V399.562V399.596V399.63V399.663V399.697V399.731V399.765V399.799V399.833V399.867V399.901V399.935V399.969V400.004V400.038V400.072V400.107V400.142V400.176V400.211V400.245V400.28V400.315V400.35V400.385V400.42V400.455V400.49V400.525V400.56V400.596V400.631V400.666V400.702V400.737V400.773V400.808V400.844V400.879V400.915V400.951V400.986V401.022V401.058V401.094V401.13V401.166V401.202V401.238V401.274V401.31V401.346V401.382V401.418V401.455V401.491V401.527V401.564V401.6V401.636V401.673V401.709V401.746V401.782V401.819V401.855V401.892V401.928V401.965V402.002V402.038V402.075V402.112V402.149V402.185V402.222V402.259V402.296V402.333V402.369V402.406V402.443V402.48V402.517V402.554V402.591V402.628V402.665V402.702V402.739V402.776V402.813V402.85V402.887V402.924V402.961V402.998V403.035V403.072V403.109V403.146V403.183V403.22V403.257V403.295V403.332V403.369V403.406V403.443V403.48V403.517V403.554V403.591V403.628V403.665V403.702V403.739V403.776V403.813V403.85V403.887V403.924V403.961V403.998V404.035V404.072V404.109V404.146V404.183V404.22V404.256V404.293V404.33V404.367V404.404V404.44V404.477V404.514V404.55V404.587V404.624V404.66V404.697V404.734V404.77V404.807V404.843V404.88V404.916V404.952V404.989V405.025V405.062V405.098V405.134V405.17V405.206V405.243V405.279V405.315V405.351V405.387V405.423V405.459V405.495V405.53V405.566V405.602V405.638V405.673V405.709V405.745V405.78V405.816V405.851V405.887V405.922V405.957V405.993V406.028V406.063V406.098V406.133V406.168V406.203V406.238V406.273V406.308V406.343V406.377V406.412V406.446V406.481V406.515V406.55V406.584V406.618V406.653V406.687V406.721V406.755V406.789V406.823V406.857V406.89V406.924V406.958V406.991V407.025V407.058V407.092V407.125V407.158V407.191V407.225V407.258V407.29V407.323V407.356V407.389V407.421V407.454V407.487V407.519V407.551V407.584V407.616V407.648V407.68V407.712V407.744V407.775V407.807V407.839V407.87V407.901V407.933V407.964V407.995V408.026V408.057V408.088V408.119V408.15V408.18V408.211V408.241V408.272V408.302V408.332V408.362V408.392V408.422V408.451V408.481V408.511V408.54V408.57V408.599V408.628V408.657V408.686V408.715V408.743V408.772V408.801V408.829V408.857V408.886V408.914V408.942V408.97V408.997V409.025V409.052V409.08V409.107V409.134V409.162V409.188V409.215V409.242C323 410.461 322.422 411.665 321.026 412.875C319.603 414.109 317.45 415.229 314.674 416.165C309.134 418.033 301.617 419 294 419C286.383 419 278.866 418.033 273.326 416.165C270.55 415.229 268.397 414.109 266.974 412.875C265.578 411.665 265 410.461 265 409.242V409.153V409.065V408.976V408.889V408.801V408.714V408.627V408.541V408.455V408.369V408.284V408.199V408.115V408.03V407.947V407.863V407.78V407.697V407.615V407.533V407.451V407.37V407.289V407.208V407.128V407.048V406.968V406.889V406.81V406.732V406.654V406.576V406.498V406.421V406.344V406.268V406.192V406.116V406.041V405.966V405.891V405.816V405.742V405.669V405.595V405.522V405.449V405.377V405.305V405.233V405.162V405.091V405.02V404.95V404.88V404.81V404.74V404.671V404.603V404.534V404.466V404.398V404.331V404.264V404.197V404.13V404.064V403.998V403.933V403.868V403.803V403.738V403.674V403.61V403.546V403.483V403.42V403.357V403.295V403.233V403.171V403.109V403.048V402.987V402.927V402.867V402.807V402.747V402.688V402.629V402.57V402.512V402.453V402.396V402.338V402.281V402.224V402.167V402.111V402.055V401.999V401.944V401.889V401.834V401.779V401.725V401.671V401.617V401.564V401.51V401.458V401.405V401.353V401.301V401.249V401.198V401.146V401.096V401.045V400.995V400.945V400.895V400.845V400.796V400.747V400.699V400.65V400.602V400.554V400.507V400.459V400.412V400.366V400.319V400.273V400.227V400.181V400.136V400.091V400.046V400.001V399.957V399.913V399.869V399.825V399.782V399.739V399.696V399.653V399.611V399.569V399.527V399.486V399.444V399.403V399.363V399.322V399.282V399.242V399.202V399.163V399.123V399.084V399.045V399.007V398.969V398.931V398.893V398.855V398.818V398.781V398.744V398.707V398.671V398.635V398.599V398.563V398.528V398.492V398.458V398.423V398.388V398.354V398.32V398.286V398.253V398.219V398.186V398.153V398.12V398.088V398.056V398.024V397.992V397.96V397.929V397.898V397.867V397.836V397.806V397.776V397.746V397.716V397.686V397.657V397.628V397.599V397.57V397.541V397.513V397.485V397.457V397.429V397.402V397.375V397.347V397.321V397.294V397.267V397.241V397.215V397.189V397.164V397.138V397.113V397.088V397.063V397.038V397.014V397.013H323Z" fill="#A83E37" stroke="black" stroke-width="4"/>
<path d="M323 395C323 398.286 320.378 401.763 315.003 404.536C309.731 407.258 302.308 409 294 409C285.692 409 278.269 407.258 272.997 404.536C267.622 401.763 265 398.286 265 395C265 391.714 267.622 388.237 272.997 385.464C278.269 382.742 285.692 381 294 381C302.308 381 309.731 382.742 315.003 385.464C320.378 388.237 323 391.714 323 395Z" fill="#FF463A" stroke="black" stroke-width="4"/>
<rect x="42" y="479" width="316" height="176" rx="18" fill="#FF5C11" stroke="black" stroke-width="4"/>
<path d="M73.3013 550.127L65.7569 550.613C63.761 550.741 62.2504 550.437 61.2251 549.701C60.2157 548.965 59.6576 547.766 59.5509 546.105L59.0704 538.633C58.9636 536.972 59.3635 535.712 60.2702 534.852C61.1929 533.991 62.6521 533.496 64.648 533.368L70.6356 532.983C70.939 532.964 71.1592 533.022 71.2962 533.157C71.4481 533.276 71.5338 533.487 71.5533 533.79L71.7397 536.688C71.7592 536.991 71.7017 537.219 71.5672 537.372C71.4477 537.508 71.2363 537.586 70.9329 537.606L65.9512 537.926C65.4562 537.958 65.0956 538.085 64.8695 538.308C64.6423 538.515 64.5415 538.818 64.5672 539.217L64.9353 544.942C64.9609 545.341 65.0678 545.63 65.2557 545.811C65.4596 545.99 65.7452 546.068 66.1125 546.044L68.4357 545.895L68.1954 542.159C68.1759 541.855 68.2259 541.636 68.3454 541.5C68.4799 541.347 68.6988 541.26 69.0022 541.241L72.7145 541.002C73.0179 540.983 73.2381 541.041 73.375 541.176C73.527 541.295 73.6127 541.506 73.6322 541.809L74.1081 549.21C74.1276 549.513 74.0701 549.741 73.9356 549.894C73.8161 550.03 73.6047 550.108 73.3013 550.127ZM81.6668 536.603L81.864 539.668L83.6603 539.553C84.0754 539.526 84.3482 539.404 84.4785 539.188C84.6078 538.955 84.6622 538.679 84.6417 538.359L84.5893 537.545C84.5688 537.226 84.48 536.967 84.323 536.769C84.1649 536.554 83.8783 536.461 83.4631 536.487L81.6668 536.603ZM81.6363 549.591L77.9479 549.829C77.6445 549.848 77.4169 549.799 77.2649 549.68C77.128 549.545 77.0497 549.325 77.0302 549.022L76.0322 533.502C76.0127 533.199 76.0627 532.979 76.1823 532.843C76.3167 532.69 76.5357 532.604 76.839 532.584L84.8146 532.071C86.6029 531.956 87.8564 532.253 88.5753 532.96C89.3091 533.65 89.714 534.586 89.79 535.768L89.8608 536.869C89.904 537.54 89.8371 538.122 89.6604 538.614C89.4985 539.089 89.1768 539.447 88.6952 539.686C89.5636 539.726 90.2807 540.033 90.8466 540.606C91.4285 541.178 91.7518 541.967 91.8165 542.973L92.143 548.05C92.1625 548.353 92.105 548.582 91.9706 548.735C91.8511 548.87 91.6396 548.948 91.3362 548.968L87.6239 549.206C87.3205 549.226 87.0929 549.176 86.941 549.058C86.804 548.922 86.7257 548.703 86.7062 548.4L86.4706 544.735C86.448 544.384 86.3597 544.133 86.2058 543.983C86.0667 543.815 85.8296 543.742 85.4943 543.764L82.1412 543.979L82.443 548.674C82.4625 548.977 82.4051 549.205 82.2706 549.358C82.1511 549.494 81.9396 549.572 81.6363 549.591ZM100.35 536.123L99.4589 539.836L103.219 539.594L101.859 536.026C101.786 535.886 101.708 535.787 101.624 535.728C101.556 535.669 101.474 535.642 101.378 535.648L100.779 535.686C100.684 535.693 100.598 535.73 100.522 535.799C100.462 535.867 100.405 535.975 100.35 536.123ZM99.7153 547.563C99.7348 547.867 99.6773 548.095 99.5429 548.248C99.4233 548.384 99.2119 548.461 98.9085 548.481L95.3878 548.707C95.0844 548.727 94.8568 548.677 94.7049 548.559C94.5679 548.423 94.4896 548.204 94.4701 547.9L94.0636 541.577C94.0328 541.098 94.0692 540.543 94.1728 539.911C94.2925 539.278 94.4853 538.536 94.7512 537.685L96.4853 532.115C96.5637 531.837 96.6945 531.628 96.8779 531.488C97.0773 531.347 97.3366 531.266 97.656 531.246L104.099 530.831C104.402 530.812 104.654 530.86 104.853 530.975C105.069 531.09 105.234 531.279 105.347 531.545L107.78 536.848C108.153 537.657 108.431 538.369 108.615 538.982C108.815 539.595 108.93 540.141 108.961 540.62L109.367 546.942C109.387 547.246 109.329 547.474 109.195 547.627C109.075 547.763 108.864 547.841 108.561 547.86L104.944 548.093C104.625 548.113 104.381 548.065 104.213 547.947C104.06 547.813 103.974 547.594 103.955 547.291L103.739 543.937L99.4997 544.21L99.7153 547.563ZM122.439 546.968L113.242 547.559C112.939 547.579 112.711 547.529 112.559 547.411C112.422 547.275 112.344 547.056 112.325 546.752L111.327 531.232C111.307 530.929 111.357 530.709 111.477 530.573C111.611 530.42 111.83 530.334 112.133 530.315L119.774 529.823C121.338 529.723 122.515 529.952 123.305 530.51C124.093 531.053 124.528 531.947 124.608 533.192L124.682 534.342C124.725 535.012 124.64 535.571 124.429 536.017C124.232 536.447 123.901 536.781 123.435 537.019C124.463 537.049 125.244 537.352 125.778 537.927C126.312 538.502 126.616 539.372 126.691 540.538L126.833 542.741C126.919 544.082 126.6 545.097 125.874 545.785C125.165 546.472 124.02 546.866 122.439 546.968ZM116.922 534.095L117.088 536.682L119.124 536.551C119.427 536.531 119.646 536.437 119.779 536.268C119.929 536.098 119.993 535.854 119.972 535.534L119.929 534.864C119.909 534.544 119.814 534.31 119.644 534.161C119.49 534.01 119.261 533.945 118.958 533.964L116.922 534.095ZM117.325 540.37L117.507 543.196L120.621 542.996C120.924 542.977 121.142 542.883 121.276 542.714C121.425 542.544 121.49 542.299 121.469 541.98L121.409 541.046C121.389 540.726 121.294 540.5 121.125 540.366C120.971 540.216 120.742 540.151 120.439 540.17L117.325 540.37ZM140.463 533.543L139.571 537.256L143.332 537.015L141.972 533.446C141.899 533.307 141.82 533.208 141.736 533.149C141.668 533.089 141.586 533.062 141.491 533.069L140.892 533.107C140.796 533.113 140.71 533.151 140.635 533.22C140.575 533.288 140.518 533.396 140.463 533.543ZM139.828 544.984C139.847 545.287 139.79 545.515 139.655 545.668C139.536 545.804 139.324 545.882 139.021 545.901L135.5 546.128C135.197 546.147 134.969 546.098 134.817 545.979C134.68 545.844 134.602 545.624 134.583 545.321L134.176 538.998C134.145 538.519 134.182 537.964 134.285 537.332C134.405 536.699 134.598 535.957 134.864 535.106L136.598 529.535C136.676 529.258 136.807 529.049 136.99 528.909C137.19 528.768 137.449 528.687 137.768 528.666L144.211 528.252C144.515 528.233 144.766 528.28 144.966 528.396C145.182 528.51 145.346 528.7 145.459 528.965L147.893 534.268C148.266 535.078 148.544 535.79 148.727 536.403C148.927 537.015 149.042 537.561 149.073 538.04L149.48 544.363C149.499 544.667 149.442 544.895 149.307 545.048C149.188 545.184 148.976 545.261 148.673 545.281L145.057 545.513C144.737 545.534 144.494 545.485 144.326 545.368C144.173 545.234 144.087 545.015 144.067 544.711L143.851 541.358L139.612 541.631L139.828 544.984ZM162.33 544.403L158.617 544.641C158.314 544.661 158.086 544.611 157.934 544.493C157.797 544.357 157.719 544.138 157.7 543.835L156.702 528.315C156.682 528.011 156.732 527.792 156.852 527.656C156.986 527.503 157.205 527.417 157.508 527.397L164.837 526.926C167.009 526.786 168.521 527.122 169.375 527.933C170.229 528.743 170.701 529.844 170.79 531.233L170.987 534.298C171.076 535.687 170.75 536.839 170.007 537.752C169.264 538.666 167.806 539.192 165.635 539.332L162.881 539.509L163.136 543.485C163.156 543.788 163.098 544.017 162.964 544.169C162.844 544.305 162.633 544.383 162.33 544.403ZM162.323 531.585L162.556 535.201L164.711 535.063C165.174 535.033 165.47 534.894 165.598 534.645C165.726 534.396 165.781 534.12 165.761 533.817L165.68 532.547C165.66 532.244 165.571 531.977 165.412 531.747C165.253 531.517 164.942 531.416 164.479 531.446L162.323 531.585ZM178.662 530.366L178.859 533.431L180.655 533.316C181.07 533.289 181.343 533.167 181.473 532.951C181.603 532.718 181.657 532.442 181.637 532.122L181.584 531.308C181.564 530.989 181.475 530.73 181.318 530.532C181.16 530.317 180.873 530.224 180.458 530.25L178.662 530.366ZM178.631 543.354L174.943 543.592C174.639 543.611 174.412 543.562 174.26 543.443C174.123 543.308 174.045 543.088 174.025 542.785L173.027 527.265C173.008 526.962 173.058 526.742 173.177 526.606C173.312 526.453 173.531 526.367 173.834 526.347L181.81 525.834C183.598 525.719 184.851 526.016 185.57 526.723C186.304 527.413 186.709 528.349 186.785 529.531L186.856 530.632C186.899 531.303 186.832 531.885 186.655 532.377C186.494 532.852 186.172 533.21 185.69 533.449C186.559 533.489 187.276 533.796 187.842 534.369C188.424 534.941 188.747 535.73 188.812 536.736L189.138 541.813C189.158 542.116 189.1 542.345 188.966 542.498C188.846 542.633 188.635 542.711 188.331 542.731L184.619 542.969C184.316 542.989 184.088 542.939 183.936 542.821C183.799 542.685 183.721 542.466 183.701 542.163L183.466 538.498C183.443 538.147 183.355 537.896 183.201 537.746C183.062 537.578 182.825 537.505 182.489 537.527L179.136 537.742L179.438 542.437C179.458 542.74 179.4 542.968 179.266 543.121C179.146 543.257 178.935 543.335 178.631 543.354ZM192.359 542.472C192.055 542.491 191.828 542.442 191.676 542.323C191.539 542.188 191.461 541.968 191.441 541.665L191.258 538.815C191.238 538.511 191.288 538.292 191.408 538.156C191.542 538.003 191.761 537.917 192.065 537.897L194.436 537.745L193.918 529.697L191.547 529.85C191.244 529.869 191.016 529.82 190.864 529.701C190.727 529.566 190.649 529.346 190.63 529.043L190.443 526.145C190.424 525.842 190.474 525.622 190.593 525.486C190.728 525.333 190.947 525.247 191.25 525.227L201.453 524.571C201.756 524.552 201.976 524.61 202.113 524.745C202.265 524.864 202.351 525.075 202.371 525.378L202.557 528.276C202.576 528.579 202.519 528.808 202.384 528.961C202.265 529.096 202.054 529.174 201.75 529.194L199.427 529.343L199.944 537.39L202.268 537.241C202.571 537.222 202.791 537.28 202.928 537.415C203.08 537.534 203.166 537.745 203.185 538.048L203.369 540.898C203.388 541.201 203.331 541.43 203.196 541.582C203.077 541.718 202.865 541.796 202.562 541.816L192.359 542.472ZM218.572 540.786L206.692 541.55C206.389 541.57 206.161 541.52 206.01 541.402C205.873 541.266 205.794 541.047 205.775 540.743L205.568 537.534C205.549 537.231 205.58 536.964 205.661 536.734C205.742 536.489 205.879 536.247 206.072 536.01L211.437 528.571L206.312 528.9C206.009 528.92 205.781 528.87 205.629 528.752C205.492 528.616 205.414 528.397 205.394 528.094L205.208 525.196C205.188 524.892 205.238 524.673 205.358 524.537C205.492 524.384 205.711 524.297 206.015 524.278L217.032 523.569C217.335 523.55 217.556 523.608 217.693 523.743C217.844 523.862 217.93 524.073 217.95 524.376L218.179 527.945C218.2 528.264 218.17 528.547 218.089 528.792C218.008 529.022 217.871 529.255 217.677 529.492L212.554 536.58L218.278 536.212C218.581 536.192 218.801 536.25 218.938 536.386C219.09 536.504 219.176 536.715 219.195 537.018L219.379 539.868C219.398 540.172 219.341 540.4 219.206 540.553C219.087 540.689 218.875 540.767 218.572 540.786ZM234.167 539.783L223.054 540.498C222.751 540.517 222.523 540.468 222.372 540.349C222.235 540.214 222.156 539.995 222.137 539.691L221.139 524.171C221.119 523.868 221.169 523.648 221.289 523.512C221.423 523.359 221.642 523.273 221.946 523.254L233.059 522.539C233.362 522.519 233.582 522.577 233.719 522.713C233.871 522.831 233.957 523.042 233.976 523.346L234.156 526.148C234.176 526.451 234.119 526.679 233.984 526.832C233.865 526.968 233.653 527.046 233.35 527.066L226.739 527.491L226.858 529.335L231.528 529.035C231.832 529.015 232.052 529.073 232.189 529.209C232.341 529.327 232.426 529.538 232.446 529.841L232.611 532.404C232.63 532.707 232.573 532.936 232.438 533.088C232.319 533.224 232.107 533.302 231.804 533.322L227.134 533.622L227.266 535.682L233.876 535.257C234.18 535.237 234.4 535.295 234.537 535.431C234.689 535.549 234.775 535.76 234.794 536.063L234.974 538.866C234.994 539.169 234.936 539.397 234.802 539.55C234.682 539.686 234.471 539.764 234.167 539.783ZM242.753 532.93L239.04 533.169C238.737 533.189 238.509 533.139 238.357 533.021C238.22 532.885 238.134 532.666 238.099 532.364L237.145 523.142C237.109 522.84 237.151 522.62 237.271 522.485C237.389 522.333 237.6 522.247 237.904 522.227L242.478 521.933C242.782 521.914 243.002 521.972 243.139 522.107C243.275 522.227 243.345 522.439 243.348 522.743L243.607 532.01C243.611 532.314 243.545 532.543 243.411 532.696C243.275 532.833 243.056 532.911 242.753 532.93ZM243.515 539.182L239.108 539.466C238.805 539.485 238.577 539.436 238.425 539.317C238.289 539.182 238.21 538.962 238.191 538.659L237.989 535.521C237.969 535.218 238.02 534.998 238.139 534.862C238.273 534.709 238.492 534.623 238.796 534.604L243.203 534.32C243.506 534.301 243.726 534.359 243.863 534.494C244.015 534.613 244.101 534.824 244.12 535.127L244.322 538.265C244.342 538.568 244.284 538.796 244.15 538.949C244.03 539.085 243.819 539.163 243.515 539.182Z" fill="black"/>
<path d="M69.7116 515.668L69.8602 512.296L71.7221 515.112C72.3195 516.015 73.4307 516.431 74.4745 516.142L77.7275 515.241L75.6252 517.882C74.9506 518.729 74.8984 519.915 75.4958 520.818L77.3577 523.634L74.1965 522.45C73.1822 522.07 72.0387 522.387 71.3641 523.234L69.2618 525.875L69.4104 522.503C69.4581 521.421 68.8036 520.431 67.7893 520.052L64.6281 518.868L67.8811 517.968C68.9249 517.679 69.6639 516.75 69.7116 515.668Z" fill="#F9BE02" stroke="black" stroke-width="3"/>
<path d="M99.3918 503.323L102.447 498.295L102.92 504.159L104.415 504.039L102.92 504.159C103.007 505.24 103.781 506.141 104.835 506.391L110.555 507.746L105.121 510.025C104.124 510.443 103.509 511.454 103.596 512.531L104.07 518.408L100.25 513.948C99.5435 513.123 98.3857 512.849 97.3844 513.268L91.9687 515.539L95.0301 510.501C95.5915 509.577 95.4955 508.397 94.7923 507.576L90.9593 503.102L96.6787 504.457C97.7333 504.707 98.8289 504.249 99.3918 503.323L98.1099 502.544L99.3918 503.323Z" fill="#F9BE02" stroke="black" stroke-width="3"/>
<path d="M227.276 553.564L232.174 550.305L230.118 555.817L231.523 556.341L230.118 555.817C229.739 556.832 230.058 557.976 230.907 558.65L235.513 562.301L229.626 562.062C228.546 562.018 227.56 562.674 227.182 563.686L225.121 569.21L223.551 563.551C223.261 562.505 222.328 561.766 221.243 561.722L215.376 561.484L220.284 558.217C221.184 557.619 221.597 556.509 221.308 555.468L219.732 549.79L224.338 553.442C225.187 554.115 226.374 554.165 227.276 553.564L226.445 552.315L227.276 553.564Z" fill="#F9BE02" stroke="black" stroke-width="3"/>
<rect x="266" y="495" width="76" height="52" rx="10" fill="#FF9C6F" stroke="black" stroke-width="4"/>
<line x1="321" y1="523" x2="321" y2="507" stroke="black" stroke-width="4" stroke-linecap="round"/>
<line x1="312" y1="535" x2="328" y2="535" stroke="black" stroke-width="4" stroke-linecap="round"/>
<circle cx="291" cy="521" r="12" fill="#F9BE02" stroke="black" stroke-width="4"/>
<path d="M293.768 527H289.864C288.531 527 287.539 526.733 286.888 526.2C286.248 525.667 285.928 524.845 285.928 523.736V518.76C285.928 517.651 286.248 516.829 286.888 516.296C287.539 515.752 288.531 515.48 289.864 515.48H293.768C293.971 515.48 294.115 515.528 294.2 515.624C294.296 515.709 294.344 515.853 294.344 516.056V517.992C294.344 518.195 294.296 518.344 294.2 518.44C294.115 518.525 293.971 518.568 293.768 518.568H290.552C290.221 518.568 289.976 518.637 289.816 518.776C289.656 518.904 289.576 519.101 289.576 519.368V523.176C289.576 523.443 289.656 523.64 289.816 523.768C289.976 523.885 290.221 523.944 290.552 523.944H293.768C293.971 523.944 294.115 523.992 294.2 524.088C294.296 524.173 294.344 524.317 294.344 524.52V526.424C294.344 526.627 294.296 526.776 294.2 526.872C294.115 526.957 293.971 527 293.768 527Z" fill="black"/>
<rect x="70" y="581" width="165" height="58" rx="10" fill="#FF9C6F" stroke="black" stroke-width="4"/>
<path d="M110.16 615H107.68C107.477 615 107.328 614.957 107.232 614.872C107.147 614.776 107.104 614.627 107.104 614.424V604.056C107.104 603.853 107.147 603.709 107.232 603.624C107.328 603.528 107.477 603.48 107.68 603.48H112.576C114.027 603.48 115.019 603.768 115.552 604.344C116.085 604.92 116.352 605.672 116.352 606.6V608.648C116.352 609.576 116.085 610.328 115.552 610.904C115.019 611.48 114.027 611.768 112.576 611.768H110.736V614.424C110.736 614.627 110.688 614.776 110.592 614.872C110.507 614.957 110.363 615 110.16 615ZM110.704 606.472V608.888H112.144C112.453 608.888 112.656 608.808 112.752 608.648C112.848 608.488 112.896 608.307 112.896 608.104V607.256C112.896 607.053 112.848 606.872 112.752 606.712C112.656 606.552 112.453 606.472 112.144 606.472H110.704ZM121.626 606.36V608.408H122.826C123.104 608.408 123.29 608.339 123.386 608.2C123.482 608.051 123.53 607.869 123.53 607.656V607.112C123.53 606.899 123.482 606.723 123.386 606.584C123.29 606.435 123.104 606.36 122.826 606.36H121.626ZM121.05 615H118.586C118.384 615 118.234 614.957 118.138 614.872C118.053 614.776 118.01 614.627 118.01 614.424V604.056C118.01 603.853 118.053 603.709 118.138 603.624C118.234 603.528 118.384 603.48 118.586 603.48H123.914C125.109 603.48 125.93 603.731 126.378 604.232C126.837 604.723 127.066 605.363 127.066 606.152V606.888C127.066 607.336 126.997 607.72 126.858 608.04C126.73 608.349 126.501 608.573 126.17 608.712C126.746 608.776 127.21 609.011 127.562 609.416C127.925 609.821 128.106 610.36 128.106 611.032V614.424C128.106 614.627 128.058 614.776 127.962 614.872C127.877 614.957 127.733 615 127.53 615H125.05C124.848 615 124.698 614.957 124.602 614.872C124.517 614.776 124.474 614.627 124.474 614.424V611.976C124.474 611.741 124.426 611.571 124.33 611.464C124.245 611.347 124.09 611.288 123.866 611.288H121.626V614.424C121.626 614.627 121.578 614.776 121.482 614.872C121.397 614.957 121.253 615 121.05 615ZM130.221 615C130.018 615 129.869 614.957 129.773 614.872C129.688 614.776 129.645 614.627 129.645 614.424V612.52C129.645 612.317 129.688 612.173 129.773 612.088C129.869 611.992 130.018 611.944 130.221 611.944H131.805V606.568H130.221C130.018 606.568 129.869 606.525 129.773 606.44C129.688 606.344 129.645 606.195 129.645 605.992V604.056C129.645 603.853 129.688 603.709 129.773 603.624C129.869 603.528 130.018 603.48 130.221 603.48H137.037C137.24 603.48 137.384 603.528 137.469 603.624C137.565 603.709 137.613 603.853 137.613 604.056V605.992C137.613 606.195 137.565 606.344 137.469 606.44C137.384 606.525 137.24 606.568 137.037 606.568H135.485V611.944H137.037C137.24 611.944 137.384 611.992 137.469 612.088C137.565 612.173 137.613 612.317 137.613 612.52V614.424C137.613 614.627 137.565 614.776 137.469 614.872C137.384 614.957 137.24 615 137.037 615H130.221ZM147.732 615H139.796C139.594 615 139.444 614.957 139.348 614.872C139.263 614.776 139.22 614.627 139.22 614.424V612.28C139.22 612.077 139.252 611.901 139.316 611.752C139.38 611.592 139.482 611.437 139.62 611.288L143.508 606.568H140.084C139.882 606.568 139.732 606.525 139.636 606.44C139.551 606.344 139.508 606.195 139.508 605.992V604.056C139.508 603.853 139.551 603.709 139.636 603.624C139.732 603.528 139.882 603.48 140.084 603.48H147.444C147.647 603.48 147.791 603.528 147.876 603.624C147.972 603.709 148.02 603.853 148.02 604.056V606.44C148.02 606.653 147.988 606.84 147.924 607C147.86 607.149 147.759 607.299 147.62 607.448L143.908 611.944H147.732C147.935 611.944 148.079 611.992 148.164 612.088C148.26 612.173 148.308 612.317 148.308 612.52V614.424C148.308 614.627 148.26 614.776 148.164 614.872C148.079 614.957 147.935 615 147.732 615ZM158.151 615H150.727C150.524 615 150.375 614.957 150.279 614.872C150.194 614.776 150.151 614.627 150.151 614.424V604.056C150.151 603.853 150.194 603.709 150.279 603.624C150.375 603.528 150.524 603.48 150.727 603.48H158.151C158.354 603.48 158.498 603.528 158.583 603.624C158.679 603.709 158.727 603.853 158.727 604.056V605.928C158.727 606.131 158.679 606.28 158.583 606.376C158.498 606.461 158.354 606.504 158.151 606.504H153.735V607.736H156.855C157.058 607.736 157.202 607.784 157.287 607.88C157.383 607.965 157.431 608.109 157.431 608.312V610.024C157.431 610.227 157.383 610.376 157.287 610.472C157.202 610.557 157.058 610.6 156.855 610.6H153.735V611.976H158.151C158.354 611.976 158.498 612.024 158.583 612.12C158.679 612.205 158.727 612.349 158.727 612.552V614.424C158.727 614.627 158.679 614.776 158.583 614.872C158.498 614.957 158.354 615 158.151 615ZM173.973 611.976C173.973 612.467 173.899 612.915 173.749 613.32C173.611 613.715 173.355 614.056 172.981 614.344C172.619 614.621 172.112 614.84 171.461 615C170.821 615.16 170.005 615.24 169.013 615.24C168.021 615.24 167.2 615.16 166.549 615C165.899 614.84 165.387 614.621 165.013 614.344C164.651 614.056 164.395 613.715 164.245 613.32C164.107 612.915 164.037 612.467 164.037 611.976V606.52C164.037 606.029 164.107 605.587 164.245 605.192C164.395 604.787 164.651 604.44 165.013 604.152C165.387 603.864 165.899 603.64 166.549 603.48C167.2 603.32 168.021 603.24 169.013 603.24C170.005 603.24 170.821 603.32 171.461 603.48C172.112 603.64 172.619 603.864 172.981 604.152C173.355 604.44 173.611 604.787 173.749 605.192C173.899 605.587 173.973 606.029 173.973 606.52V611.976ZM167.669 611.4C167.669 611.613 167.749 611.795 167.909 611.944C168.069 612.083 168.437 612.152 169.013 612.152C169.589 612.152 169.957 612.083 170.117 611.944C170.277 611.795 170.357 611.613 170.357 611.4V607.096C170.357 606.893 170.277 606.723 170.117 606.584C169.957 606.435 169.589 606.36 169.013 606.36C168.437 606.36 168.069 606.435 167.909 606.584C167.749 606.723 167.669 606.893 167.669 607.096V611.4ZM185.818 611.976C185.818 612.467 185.744 612.915 185.594 613.32C185.456 613.715 185.2 614.056 184.826 614.344C184.464 614.621 183.962 614.84 183.322 615C182.682 615.16 181.866 615.24 180.874 615.24C179.882 615.24 179.066 615.16 178.426 615C177.786 614.84 177.28 614.621 176.906 614.344C176.544 614.056 176.288 613.715 176.138 613.32C176 612.915 175.93 612.467 175.93 611.976V604.056C175.93 603.853 175.973 603.709 176.058 603.624C176.154 603.528 176.304 603.48 176.506 603.48H179.018C179.221 603.48 179.365 603.528 179.45 603.624C179.546 603.709 179.594 603.853 179.594 604.056V611.352C179.594 611.565 179.674 611.747 179.834 611.896C179.994 612.035 180.352 612.104 180.906 612.104C181.472 612.104 181.834 612.035 181.994 611.896C182.154 611.747 182.234 611.565 182.234 611.352V604.056C182.234 603.853 182.277 603.709 182.362 603.624C182.458 603.528 182.608 603.48 182.81 603.48H185.242C185.445 603.48 185.589 603.528 185.674 603.624C185.77 603.709 185.818 603.853 185.818 604.056V611.976ZM193.388 615H190.796C190.593 615 190.444 614.957 190.348 614.872C190.262 614.776 190.22 614.627 190.22 614.424V606.568H187.868C187.665 606.568 187.516 606.525 187.42 606.44C187.334 606.344 187.292 606.195 187.292 605.992V604.056C187.292 603.853 187.334 603.709 187.42 603.624C187.516 603.528 187.665 603.48 187.868 603.48H196.316C196.518 603.48 196.662 603.528 196.748 603.624C196.844 603.709 196.892 603.853 196.892 604.056V605.992C196.892 606.195 196.844 606.344 196.748 606.44C196.662 606.525 196.518 606.568 196.316 606.568H193.964V614.424C193.964 614.627 193.916 614.776 193.82 614.872C193.734 614.957 193.59 615 193.388 615Z" fill="black"/>
<rect x="252.115" y="573.818" width="81.5643" height="59.6542" rx="2" transform="rotate(-3.39381 252.115 573.818)" fill="#FFEDB5" stroke="black" stroke-width="4"/>
<path d="M271.821 567.872L312.729 563.76L310.569 570.12L310.237 571.095L310.839 571.932L313.576 575.736L273.021 579.812L275.829 574.629L276.476 573.434L275.604 572.392L271.821 567.872Z" fill="#00C9B8" stroke="black" stroke-width="4"/>
<path d="M273.253 597.07C273.213 596.802 273.167 596.534 273.115 596.266C273.074 595.987 273.017 595.714 272.945 595.448C272.928 595.22 272.99 595.069 273.13 594.996C273.281 594.922 273.445 594.878 273.622 594.865L273.934 594.842C274.095 594.903 274.21 594.983 274.281 595.082C274.351 595.182 274.401 595.293 274.431 595.416C274.461 595.539 274.476 595.668 274.475 595.804C274.485 595.939 274.5 596.069 274.52 596.193C274.534 596.244 274.546 596.332 274.555 596.456C274.565 596.581 274.574 596.711 274.584 596.846C274.605 596.98 274.624 597.104 274.643 597.218C274.673 597.33 274.704 597.401 274.737 597.43L275.917 594.757C275.971 594.638 276.052 594.538 276.161 594.457C276.28 594.364 276.412 594.323 276.559 594.333C276.789 594.337 276.964 594.371 277.084 594.435C277.203 594.489 277.287 594.571 277.337 594.682C277.397 594.782 277.433 594.91 277.444 595.066C277.466 595.221 277.489 595.392 277.514 595.578C277.518 595.64 277.533 595.759 277.556 595.935C277.579 596.101 277.602 596.276 277.627 596.463C277.661 596.648 277.69 596.823 277.713 596.989C277.746 597.154 277.77 597.267 277.785 597.328L277.847 597.324C277.863 597.249 277.889 597.106 277.925 596.895C277.972 596.682 278.023 596.459 278.079 596.225C278.135 595.991 278.186 595.768 278.233 595.556C278.28 595.343 278.316 595.194 278.341 595.109C278.349 595.087 278.367 595.044 278.394 594.98C278.419 594.905 278.445 594.83 278.471 594.755C278.496 594.669 278.522 594.594 278.548 594.529C278.574 594.454 278.591 594.401 278.599 594.369C278.663 594.249 278.732 594.187 278.804 594.181C278.887 594.165 278.975 594.153 279.068 594.146C279.328 594.127 279.53 594.18 279.675 594.305C279.83 594.418 279.946 594.572 280.023 594.764C280.11 594.956 280.178 595.171 280.227 595.407C280.276 595.633 280.328 595.844 280.384 596.038C280.394 596.037 280.4 596.047 280.402 596.068C280.403 596.078 280.398 596.089 280.389 596.1L281.583 600.571C281.628 600.609 281.651 600.644 281.654 600.675C281.666 600.706 281.675 600.747 281.679 600.799C281.687 600.913 281.638 601.031 281.533 601.154C281.437 601.266 281.331 601.326 281.217 601.334C281.061 601.346 280.875 601.302 280.659 601.204C280.453 601.104 280.328 600.967 280.284 600.793L279.292 597.153L279.205 597.035C279.188 597.088 279.152 597.242 279.098 597.497C279.054 597.74 278.999 598.053 278.933 598.434C278.866 598.804 278.788 599.223 278.697 599.689C278.617 600.154 278.532 600.631 278.443 601.118C278.43 601.213 278.373 601.29 278.273 601.35C278.182 601.399 278.101 601.426 278.028 601.431C277.81 601.447 277.631 601.434 277.492 601.392C277.353 601.351 277.244 601.28 277.163 601.182C277.083 601.083 277.022 600.963 276.98 600.82C276.938 600.676 276.899 600.512 276.865 600.327C276.862 600.285 276.84 600.141 276.801 599.893C276.761 599.635 276.713 599.346 276.658 599.026C276.613 598.695 276.562 598.365 276.506 598.035C276.45 597.704 276.41 597.441 276.384 597.245C276.381 597.203 276.379 597.172 276.377 597.151C276.376 597.13 276.375 597.115 276.374 597.104C276.372 597.084 276.366 597.063 276.354 597.043C276.341 597.013 276.317 596.968 276.281 596.908L275.909 598.016L275.389 600.703L275.305 601.681C275.299 601.744 275.272 601.803 275.224 601.859C275.185 601.904 275.136 601.944 275.076 601.98C275.015 602.005 274.954 602.025 274.893 602.04C274.831 602.055 274.78 602.065 274.738 602.068C274.51 602.085 274.306 602.016 274.127 601.862C273.959 601.708 273.863 601.532 273.837 601.336C273.822 601.264 273.801 601.124 273.775 600.917C273.748 600.7 273.714 600.446 273.671 600.157C273.629 599.868 273.585 599.563 273.541 599.242C273.506 598.921 273.468 598.616 273.425 598.327C273.383 598.037 273.343 597.784 273.306 597.568C273.28 597.35 273.264 597.205 273.258 597.133L273.253 597.07ZM283.139 600.847C282.958 599.816 282.804 598.934 282.676 598.202C282.548 597.47 282.44 596.856 282.351 596.362C282.262 595.867 282.186 595.476 282.123 595.188C282.069 594.889 282.026 594.667 281.995 594.524C281.962 594.369 281.939 594.267 281.925 594.215C281.911 594.164 281.903 594.133 281.902 594.123L281.898 594.061C281.889 593.946 281.929 593.849 282.017 593.77C282.115 593.679 282.215 593.63 282.319 593.622C282.475 593.61 282.643 593.624 282.824 593.663C283.015 593.701 283.147 593.801 283.222 593.962C283.353 594.464 283.454 594.974 283.524 595.491C283.604 596.007 283.674 596.524 283.733 597.042C283.802 597.549 283.877 598.06 283.957 598.576C284.048 599.092 284.175 599.6 284.337 600.099C284.339 600.12 284.347 600.161 284.362 600.223C284.387 600.284 284.408 600.35 284.424 600.422C284.45 600.493 284.471 600.559 284.486 600.621C284.501 600.683 284.509 600.724 284.511 600.745L284.513 600.776C284.514 600.786 284.52 600.796 284.531 600.806C284.54 600.93 284.492 601.059 284.387 601.192C284.282 601.326 284.167 601.386 284.04 601.375C284.008 601.367 283.929 601.357 283.803 601.346C283.687 601.323 283.607 601.303 283.564 601.285C283.532 601.277 283.489 601.259 283.434 601.232C283.379 601.194 283.324 601.157 283.269 601.119C283.225 601.081 283.185 601.036 283.15 600.987C283.115 600.937 283.111 600.89 283.139 600.847ZM281.421 589.552C281.415 589.48 281.468 589.413 281.578 589.353C281.698 589.281 281.79 589.243 281.852 589.238C282.008 589.227 282.183 589.261 282.377 589.34C282.58 589.409 282.688 589.531 282.702 589.708C282.715 589.884 282.698 590.006 282.65 590.072C282.613 590.137 282.507 590.177 282.33 590.19C282.143 590.204 281.946 590.156 281.74 590.046C281.543 589.935 281.437 589.771 281.421 589.552ZM285.007 599.423C284.912 599.116 284.884 598.748 284.925 598.316C284.976 597.884 285.069 597.449 285.204 597.011C285.348 596.561 285.53 596.135 285.751 595.732C285.982 595.329 286.229 595.002 286.493 594.753C286.767 594.502 287.048 594.356 287.338 594.314C287.637 594.26 287.932 594.369 288.224 594.639C288.224 594.65 288.232 594.675 288.245 594.716C288.259 594.757 288.275 594.844 288.296 594.979C288.316 595.103 288.334 595.284 288.352 595.523C288.38 595.751 288.408 596.067 288.438 596.472C288.45 596.492 288.464 596.528 288.478 596.579C288.502 596.619 288.514 596.649 288.516 596.67C288.493 596.787 288.439 596.901 288.353 597.011C288.277 597.111 288.172 597.166 288.037 597.176C287.86 597.189 287.713 597.174 287.594 597.131C287.486 597.076 287.398 596.942 287.329 596.727C287.348 596.695 287.348 596.632 287.331 596.539C287.313 596.436 287.284 596.323 287.243 596.201C287.213 596.078 287.183 595.955 287.153 595.832C287.123 595.708 287.105 595.611 287.1 595.538C287.089 595.539 287.075 595.55 287.055 595.573C287.046 595.584 287.036 595.595 287.027 595.606C286.873 595.931 286.733 596.291 286.606 596.687C286.488 597.072 286.402 597.465 286.349 597.866C286.305 598.255 286.307 598.642 286.357 599.025C286.416 599.407 286.557 599.746 286.777 600.043C286.923 600.032 287.053 599.965 287.17 599.841C287.285 599.708 287.38 599.585 287.456 599.475C287.617 599.255 287.772 599.029 287.922 598.798C288.083 598.567 288.227 598.326 288.354 598.077C288.409 597.968 288.449 597.871 288.474 597.786C288.499 597.7 288.53 597.63 288.568 597.575C288.616 597.519 288.675 597.473 288.745 597.437C288.816 597.4 288.924 597.376 289.069 597.365C289.235 597.353 289.394 597.383 289.546 597.455C289.697 597.517 289.779 597.636 289.792 597.813C289.81 598.052 289.723 598.361 289.532 598.741C289.35 599.11 289.116 599.472 288.829 599.828C288.553 600.182 288.252 600.492 287.927 600.756C287.601 601.011 287.309 601.147 287.049 601.167C286.8 601.185 286.552 601.157 286.306 601.081C286.07 600.994 285.857 600.874 285.668 600.721C285.49 600.567 285.34 600.38 285.219 600.159C285.098 599.938 285.028 599.693 285.007 599.423ZM290.329 593.245C290.303 592.62 290.231 591.999 290.112 591.381C289.993 590.763 289.91 590.148 289.865 589.535C289.85 589.337 289.898 589.214 290.009 589.164C290.12 589.103 290.248 589.067 290.393 589.057C290.601 589.041 290.777 589.086 290.92 589.19C291.064 589.294 291.154 589.449 291.19 589.655C291.368 590.781 291.503 591.899 291.596 593.009C291.699 594.109 291.86 595.22 292.08 596.342C292.347 595.727 292.633 595.215 292.937 594.806C293.24 594.396 293.538 594.118 293.83 593.971C294.133 593.823 294.415 593.828 294.677 593.987C294.949 594.133 295.182 594.456 295.376 594.953C295.569 595.44 295.714 596.119 295.81 596.989C295.905 597.849 295.933 598.928 295.894 600.226C295.821 600.231 295.733 600.243 295.63 600.261C295.526 600.269 295.422 600.271 295.318 600.269C295.223 600.265 295.139 600.251 295.064 600.225C294.989 600.199 294.943 600.145 294.926 600.063C294.951 599.278 294.949 598.62 294.92 598.089C294.891 597.559 294.843 597.123 294.776 596.784C294.709 596.444 294.632 596.189 294.547 596.017C294.46 595.836 294.372 595.707 294.283 595.63C294.193 595.553 294.107 595.517 294.024 595.524C293.951 595.519 293.893 595.523 293.853 595.536C293.63 595.637 293.427 595.855 293.244 596.193C293.07 596.53 292.927 596.916 292.813 597.353C292.699 597.79 292.624 598.25 292.587 598.733C292.559 599.205 292.575 599.627 292.634 599.999C292.63 600.082 292.625 600.166 292.621 600.25C292.617 600.334 292.602 600.414 292.576 600.489C292.561 600.563 292.524 600.628 292.466 600.685C292.417 600.73 292.335 600.757 292.221 600.766C292.003 600.782 291.823 600.759 291.683 600.696C291.552 600.622 291.446 600.526 291.364 600.407C291.292 600.287 291.24 600.144 291.207 599.98C291.184 599.814 291.176 599.642 291.184 599.464L290.329 593.245ZM302.892 595.521C302.885 595.71 302.87 595.857 302.847 595.963C302.834 596.069 302.799 596.165 302.743 596.253C302.687 596.341 302.605 596.436 302.498 596.538C302.39 596.629 302.243 596.766 302.058 596.947C301.872 597.117 301.644 597.343 301.372 597.624C301.101 597.906 300.773 598.27 300.388 598.716C300.234 598.884 300.074 599.058 299.91 599.237C299.746 599.417 299.57 599.581 299.383 599.731C299.205 599.87 299.015 599.988 298.814 600.087C298.612 600.185 298.397 600.243 298.169 600.26C297.722 600.293 297.383 600.167 297.153 599.881C296.923 599.596 296.793 599.255 296.764 598.861C296.744 598.601 296.733 598.382 296.731 598.205C296.738 598.027 296.763 597.795 296.804 597.51C296.682 597.415 296.577 597.334 296.489 597.267C296.399 597.19 296.35 597.084 296.339 596.949C296.33 596.825 296.35 596.74 296.399 596.694C296.458 596.648 296.524 596.617 296.596 596.601C296.677 596.574 296.754 596.548 296.825 596.522C296.896 596.495 296.945 596.45 296.971 596.385C296.987 596.321 297.015 596.204 297.055 596.034C297.105 595.864 297.154 595.687 297.203 595.506C297.252 595.315 297.296 595.139 297.337 594.979C297.387 594.808 297.42 594.691 297.436 594.627C297.495 594.445 297.56 594.263 297.63 594.08C297.71 593.886 297.801 593.712 297.904 593.558C298.018 593.403 298.15 593.274 298.299 593.168C298.458 593.063 298.646 593.002 298.865 592.985C298.989 592.976 299.144 593.022 299.329 593.123C299.525 593.223 299.712 593.35 299.89 593.504C300.068 593.648 300.221 593.804 300.348 593.972C300.476 594.14 300.544 594.286 300.553 594.411C300.565 594.567 300.539 594.715 300.477 594.855C300.413 594.985 300.329 595.112 300.223 595.234C300.127 595.346 300.02 595.453 299.902 595.556C299.784 595.659 299.677 595.756 299.579 595.846C299.569 595.847 299.549 595.859 299.519 595.882C299.489 595.905 299.465 595.923 299.445 595.935C299.435 595.946 299.411 595.974 299.372 596.018C299.344 596.052 299.31 596.091 299.272 596.136C299.233 596.18 299.195 596.225 299.156 596.27C299.128 596.313 299.109 596.341 299.1 596.352C299.071 596.386 299.012 596.442 298.924 596.522C298.846 596.59 298.758 596.67 298.66 596.761C298.562 596.841 298.468 596.921 298.38 597.001C298.302 597.07 298.248 597.115 298.218 597.139L298.165 597.268C298.147 597.311 298.134 597.406 298.124 597.553C298.123 597.689 298.119 597.846 298.112 598.024C298.104 598.202 298.097 598.385 298.09 598.574C298.093 598.751 298.098 598.897 298.107 599.011C298.108 599.022 298.114 599.032 298.125 599.041C298.147 599.061 298.163 599.07 298.174 599.069C298.257 599.063 298.332 599.021 298.399 598.943C298.467 598.864 298.541 598.807 298.622 598.769L300.943 596.278L301.509 595.248C301.555 595.172 301.648 595.086 301.787 594.993C301.936 594.887 302.089 594.829 302.244 594.818C302.399 594.796 302.538 594.832 302.66 594.928C302.792 595.022 302.87 595.22 302.892 595.521ZM299.374 594.561C299.422 594.516 299.439 594.452 299.422 594.37C299.405 594.287 299.369 594.217 299.312 594.158C299.266 594.099 299.206 594.067 299.133 594.062C299.059 594.047 298.994 594.088 298.938 594.186C298.91 594.23 298.859 594.317 298.786 594.448C298.722 594.578 298.654 594.714 298.581 594.855C298.517 594.985 298.463 595.099 298.418 595.196C298.373 595.294 298.366 595.331 298.395 595.308L299.374 594.561ZM303.686 598.815C303.653 598.379 303.632 597.952 303.622 597.535C303.612 597.118 303.59 596.691 303.558 596.255C303.439 595.073 303.342 593.916 303.268 592.783C303.193 591.639 303.054 590.475 302.851 589.288C302.836 589.091 302.873 588.958 302.962 588.888C303.05 588.809 303.188 588.762 303.375 588.748C303.614 588.73 303.822 588.788 303.999 588.921C304.185 589.043 304.293 589.228 304.322 589.477C304.411 590.953 304.536 592.417 304.696 593.867C304.866 595.306 305.006 596.769 305.117 598.254L305.206 599.454C305.15 599.542 305.068 599.632 304.96 599.723C304.852 599.815 304.74 599.854 304.624 599.842C304.319 599.813 304.092 599.709 303.943 599.533C303.793 599.345 303.707 599.106 303.686 598.815ZM306.07 598.638C306.037 598.201 306.016 597.775 306.006 597.358C305.996 596.941 305.974 596.514 305.942 596.078C305.823 594.896 305.726 593.738 305.652 592.605C305.577 591.462 305.438 590.297 305.235 589.111C305.22 588.914 305.257 588.78 305.346 588.711C305.434 588.631 305.572 588.584 305.759 588.571C305.998 588.553 306.206 588.61 306.383 588.743C306.57 588.865 306.677 589.051 306.706 589.299C306.795 590.776 306.92 592.239 307.08 593.69C307.25 595.129 307.39 596.591 307.501 598.077L307.59 599.277C307.534 599.364 307.452 599.454 307.344 599.546C307.236 599.637 307.124 599.677 307.008 599.665C306.703 599.635 306.476 599.532 306.327 599.355C306.177 599.168 306.092 598.929 306.07 598.638ZM314.594 594.65C314.587 594.839 314.572 594.986 314.549 595.092C314.536 595.197 314.501 595.294 314.445 595.382C314.389 595.47 314.307 595.564 314.2 595.666C314.092 595.758 313.945 595.894 313.76 596.075C313.574 596.246 313.346 596.472 313.074 596.753C312.803 597.034 312.475 597.398 312.09 597.845C311.935 598.013 311.776 598.187 311.612 598.366C311.448 598.545 311.272 598.71 311.085 598.86C310.907 598.998 310.717 599.117 310.516 599.215C310.314 599.314 310.099 599.372 309.87 599.389C309.424 599.422 309.085 599.296 308.855 599.01C308.625 598.724 308.495 598.384 308.466 597.989C308.446 597.73 308.435 597.511 308.433 597.334C308.44 597.156 308.465 596.924 308.506 596.639C308.384 596.543 308.279 596.462 308.19 596.396C308.101 596.319 308.052 596.213 308.041 596.078C308.032 595.953 308.052 595.868 308.101 595.823C308.16 595.777 308.226 595.746 308.298 595.73C308.379 595.703 308.455 595.676 308.527 595.65C308.598 595.624 308.647 595.579 308.673 595.514C308.689 595.45 308.717 595.333 308.757 595.163C308.807 594.992 308.856 594.816 308.905 594.635C308.954 594.443 308.998 594.268 309.039 594.108C309.088 593.937 309.122 593.82 309.138 593.756C309.197 593.574 309.262 593.391 309.332 593.209C309.412 593.015 309.503 592.841 309.606 592.687C309.72 592.532 309.852 592.402 310 592.297C310.16 592.191 310.348 592.13 310.567 592.114C310.691 592.105 310.846 592.151 311.031 592.252C311.227 592.352 311.414 592.479 311.592 592.633C311.77 592.776 311.923 592.932 312.05 593.1C312.178 593.268 312.246 593.415 312.255 593.539C312.267 593.695 312.241 593.843 312.179 593.984C312.115 594.114 312.031 594.24 311.925 594.363C311.829 594.475 311.722 594.582 311.604 594.685C311.486 594.787 311.379 594.884 311.281 594.975C311.271 594.976 311.251 594.988 311.221 595.011C311.191 595.034 311.167 595.051 311.147 595.063C311.137 595.075 311.113 595.102 311.074 595.147C311.046 595.181 311.012 595.22 310.974 595.264C310.935 595.309 310.897 595.354 310.858 595.398C310.83 595.442 310.811 595.47 310.802 595.481C310.773 595.514 310.714 595.571 310.626 595.651C310.548 595.719 310.46 595.799 310.362 595.89C310.264 595.97 310.17 596.05 310.082 596.13C310.004 596.198 309.95 596.244 309.92 596.267L309.867 596.396C309.849 596.44 309.836 596.535 309.826 596.682C309.825 596.817 309.821 596.974 309.814 597.153C309.806 597.331 309.799 597.514 309.792 597.703C309.795 597.88 309.8 598.026 309.809 598.14C309.81 598.15 309.816 598.16 309.827 598.17C309.849 598.189 309.865 598.198 309.876 598.198C309.959 598.191 310.034 598.149 310.101 598.071C310.169 597.993 310.243 597.935 310.324 597.898L312.645 595.406L313.211 594.377C313.257 594.3 313.35 594.215 313.489 594.121C313.638 594.016 313.791 593.958 313.946 593.946C314.101 593.924 314.24 593.961 314.362 594.056C314.494 594.151 314.572 594.349 314.594 594.65ZM311.076 593.69C311.124 593.644 311.141 593.581 311.124 593.498C311.107 593.416 311.071 593.346 311.014 593.287C310.968 593.228 310.908 593.196 310.835 593.191C310.761 593.175 310.696 593.217 310.64 593.315C310.612 593.359 310.561 593.446 310.487 593.577C310.424 593.707 310.356 593.843 310.283 593.984C310.219 594.114 310.165 594.228 310.12 594.325C310.075 594.422 310.067 594.46 310.097 594.436L311.076 593.69ZM314.758 591.175C314.753 591.102 314.749 590.972 314.745 590.784C314.752 590.596 314.753 590.397 314.748 590.189C314.753 589.979 314.754 589.781 314.75 589.593C314.747 589.405 314.742 589.27 314.736 589.187C314.789 588.922 314.946 588.78 315.205 588.76C315.434 588.743 315.6 588.799 315.703 588.927C315.806 589.044 315.865 589.207 315.881 589.415C315.885 589.477 315.89 589.602 315.893 589.79C315.906 589.967 315.911 590.175 315.908 590.416C315.905 590.646 315.897 590.892 315.885 591.154C315.883 591.405 315.869 591.636 315.843 591.846C315.816 592.057 315.777 592.233 315.725 592.372C315.673 592.512 315.61 592.579 315.536 592.574C315.389 592.564 315.271 592.521 315.182 592.444C315.092 592.357 315.017 592.258 314.956 592.147C314.896 592.037 314.85 591.92 314.82 591.797C314.8 591.663 314.785 591.539 314.777 591.424L314.758 591.175ZM319.663 598.127C319.659 598.075 319.656 598.028 319.653 597.987C319.66 597.944 319.683 597.901 319.721 597.856C319.834 597.691 319.963 597.52 320.106 597.342C320.249 597.154 320.387 596.971 320.52 596.794C320.652 596.607 320.773 596.415 320.884 596.218C320.995 596.022 321.085 595.827 321.154 595.634L321.147 595.541L319.137 596.114L318.904 596.131C318.758 596.142 318.576 596.145 318.356 596.14C318.147 596.135 317.936 596.109 317.723 596.062C317.52 596.004 317.342 595.918 317.187 595.804C317.043 595.69 316.963 595.529 316.947 595.321C316.94 595.081 317.045 594.807 317.262 594.498C317.479 594.19 317.739 593.883 318.04 593.579C318.341 593.274 318.644 592.991 318.948 592.728C319.262 592.464 319.513 592.257 319.701 592.108C319.91 591.967 320.162 591.849 320.458 591.753C320.753 591.648 321.025 591.586 321.274 591.567C321.482 591.552 321.667 591.58 321.829 591.651C321.99 591.712 322.079 591.857 322.096 592.086C322.103 592.179 322.099 592.268 322.085 592.353C322.081 592.437 322.023 592.499 321.911 592.538C321.576 592.532 321.266 592.581 320.982 592.686C320.696 592.78 320.429 592.915 320.181 593.09C319.933 593.265 319.703 593.47 319.491 593.706C319.278 593.93 319.07 594.165 318.869 594.41C318.812 594.487 318.742 594.597 318.659 594.739C318.575 594.871 318.533 594.947 318.535 594.968L318.536 594.983C318.806 594.963 319.069 594.917 319.325 594.846C319.591 594.774 319.852 594.702 320.108 594.631C320.373 594.549 320.634 594.472 320.89 594.401C321.156 594.328 321.429 594.282 321.71 594.261C321.814 594.253 321.929 594.255 322.055 594.267C322.18 594.268 322.297 594.291 322.405 594.335C322.523 594.378 322.617 594.444 322.686 594.533C322.765 594.611 322.809 594.717 322.819 594.852C322.834 595.05 322.796 595.246 322.706 595.44C322.626 595.624 322.497 595.853 322.319 596.127C322.15 596.391 321.929 596.715 321.655 597.101C321.391 597.486 321.078 597.98 320.715 598.581C320.697 598.614 320.647 598.639 320.564 598.655C320.492 598.671 320.43 598.681 320.378 598.685C320.233 598.696 320.078 598.644 319.913 598.531C319.758 598.418 319.675 598.283 319.663 598.127ZM293.761 616.821C293.665 616.514 293.638 616.146 293.679 615.714C293.73 615.282 293.823 614.847 293.958 614.409C294.102 613.959 294.284 613.533 294.505 613.13C294.736 612.727 294.983 612.4 295.247 612.151C295.52 611.9 295.802 611.754 296.091 611.712C296.39 611.658 296.686 611.767 296.977 612.037C296.978 612.048 296.985 612.073 296.999 612.114C297.012 612.155 297.029 612.242 297.05 612.377C297.069 612.501 297.088 612.682 297.106 612.921C297.133 613.149 297.162 613.465 297.192 613.87C297.204 613.89 297.217 613.926 297.231 613.977C297.255 614.017 297.268 614.047 297.27 614.068C297.247 614.185 297.193 614.299 297.107 614.409C297.031 614.509 296.925 614.564 296.79 614.574C296.614 614.587 296.466 614.572 296.348 614.529C296.24 614.474 296.151 614.34 296.083 614.125C296.101 614.093 296.102 614.03 296.085 613.937C296.067 613.834 296.037 613.721 295.997 613.599C295.967 613.476 295.937 613.353 295.907 613.23C295.877 613.106 295.859 613.009 295.853 612.936C295.843 612.937 295.828 612.948 295.809 612.971C295.799 612.982 295.79 612.993 295.78 613.004C295.627 613.329 295.486 613.689 295.359 614.085C295.242 614.47 295.156 614.863 295.102 615.264C295.058 615.653 295.061 616.04 295.11 616.423C295.17 616.805 295.31 617.144 295.531 617.441C295.676 617.43 295.807 617.363 295.923 617.239C296.039 617.106 296.134 616.984 296.209 616.873C296.37 616.653 296.526 616.427 296.676 616.196C296.836 615.965 296.98 615.724 297.108 615.475C297.162 615.366 297.202 615.269 297.227 615.184C297.252 615.098 297.284 615.028 297.321 614.973C297.369 614.917 297.429 614.871 297.499 614.835C297.569 614.798 297.677 614.774 297.823 614.763C297.989 614.751 298.148 614.781 298.299 614.853C298.45 614.915 298.532 615.034 298.545 615.211C298.563 615.45 298.477 615.759 298.285 616.139C298.104 616.508 297.87 616.87 297.583 617.226C297.306 617.58 297.006 617.89 296.681 618.154C296.355 618.409 296.062 618.545 295.802 618.565C295.553 618.583 295.306 618.555 295.06 618.479C294.823 618.392 294.611 618.272 294.422 618.119C294.243 617.965 294.094 617.778 293.973 617.557C293.852 617.336 293.781 617.091 293.761 616.821ZM299.46 617.18C299.427 616.743 299.406 616.317 299.396 615.9C299.386 615.483 299.364 615.056 299.332 614.62C299.212 613.438 299.116 612.28 299.042 611.147C298.967 610.004 298.828 608.839 298.625 607.653C298.61 607.456 298.647 607.322 298.736 607.253C298.824 607.173 298.962 607.127 299.149 607.113C299.388 607.095 299.596 607.152 299.773 607.285C299.959 607.407 300.067 607.593 300.096 607.841C300.185 609.318 300.31 610.781 300.47 612.232C300.64 613.671 300.78 615.133 300.891 616.619L300.98 617.819C300.924 617.906 300.842 617.996 300.734 618.088C300.626 618.179 300.514 618.219 300.398 618.207C300.093 618.177 299.866 618.074 299.717 617.897C299.567 617.71 299.481 617.471 299.46 617.18ZM305.107 613.485C305.026 613.658 304.932 613.868 304.825 614.117C304.728 614.354 304.622 614.612 304.507 614.892C304.391 615.162 304.26 615.438 304.114 615.721C303.978 615.992 303.829 616.243 303.669 616.475C303.519 616.705 303.356 616.905 303.181 617.075C303.005 617.234 302.819 617.337 302.624 617.383C302.541 617.389 302.447 617.391 302.343 617.388C302.237 617.375 302.131 617.357 302.025 617.333C301.918 617.3 301.826 617.254 301.749 617.197C301.681 617.129 301.643 617.038 301.634 616.924C301.566 615.864 301.572 614.897 301.653 614.024C301.734 613.14 301.905 612.36 302.168 611.682C302.43 610.994 302.789 610.414 303.245 609.941C303.701 609.469 304.27 609.113 304.952 608.874C304.973 608.872 305.009 608.87 305.061 608.866C305.123 608.851 305.164 608.843 305.184 608.841C305.495 608.807 305.729 608.936 305.887 609.227C306.054 609.507 306.193 609.967 306.303 610.607C306.423 611.235 306.531 612.052 306.627 613.058C306.732 614.053 306.878 615.249 307.066 616.645C307.106 616.757 307.129 616.854 307.135 616.937C307.151 617.02 307.164 617.118 307.172 617.232C307.184 617.388 307.146 617.511 307.059 617.601C306.971 617.681 306.854 617.726 306.709 617.737C306.407 617.759 306.188 617.692 306.051 617.535C305.914 617.378 305.814 617.161 305.752 616.884C305.751 616.873 305.735 616.791 305.702 616.637C305.68 616.482 305.646 616.307 305.6 616.111C305.564 615.905 305.528 615.699 305.492 615.493C305.456 615.287 305.427 615.116 305.407 614.982L305.402 614.92C305.374 614.817 305.348 614.689 305.326 614.534C305.315 614.378 305.293 614.228 305.262 614.084C305.228 613.909 305.199 613.734 305.175 613.558L305.107 613.485ZM304.535 610.425C304.27 610.654 304.015 610.955 303.771 611.328C303.528 611.701 303.361 612.058 303.272 612.399C303.231 612.559 303.19 612.776 303.148 613.051C303.105 613.326 303.068 613.6 303.037 613.874C303.014 614.137 302.996 614.383 302.982 614.614C302.967 614.835 302.962 614.976 302.967 615.038C302.977 615.038 302.987 615.027 302.996 615.005C303.015 614.983 303.029 614.966 303.039 614.955C303.636 614.284 304.038 613.58 304.245 612.844C304.461 612.096 304.557 611.29 304.535 610.425ZM309.8 616.754C309.72 616.52 309.493 615.926 309.119 614.972C308.745 614.008 308.218 612.616 307.539 610.797C307.538 610.776 307.524 610.735 307.499 610.674C307.483 610.602 307.474 610.556 307.473 610.535C307.484 610.409 307.572 610.329 307.737 610.296C307.901 610.253 308.025 610.233 308.109 610.237C308.34 610.251 308.511 610.312 308.624 610.418C308.746 610.524 308.852 610.683 308.941 610.896L310.067 613.805L310.135 613.878C310.244 613.661 310.299 613.417 310.299 613.145C310.3 612.873 310.307 612.612 310.319 612.36C310.342 612.097 310.397 611.858 310.485 611.643C310.574 611.427 310.76 611.267 311.045 611.162C311.107 611.158 311.176 611.168 311.251 611.194C311.325 611.209 311.395 611.241 311.462 611.288C311.537 611.324 311.604 611.371 311.66 611.43C311.716 611.478 311.757 611.532 311.782 611.593L312.824 614.226L313.013 614.447C313.041 614.257 313.07 613.952 313.102 613.532C313.143 613.111 313.179 612.675 313.208 612.223C313.246 611.761 313.277 611.335 313.301 610.947C313.323 610.549 313.34 610.276 313.35 610.129C313.348 610.108 313.345 610.072 313.341 610.02C313.348 609.967 313.35 609.93 313.349 609.91C313.425 609.81 313.534 609.734 313.677 609.681C313.818 609.619 313.947 609.593 314.063 609.606C314.105 609.613 314.159 609.635 314.224 609.672C314.299 609.698 314.37 609.74 314.437 609.797C314.503 609.844 314.554 609.898 314.59 609.958C314.636 610.017 314.661 610.073 314.665 610.125L314.253 616.58C314.247 616.643 314.215 616.697 314.155 616.744C314.095 616.779 314.025 616.816 313.944 616.853C313.873 616.879 313.796 616.901 313.714 616.917C313.641 616.923 313.584 616.927 313.543 616.93C313.286 616.855 313.057 616.721 312.855 616.527C312.662 616.322 312.483 616.095 312.318 615.846C312.164 615.597 312.019 615.341 311.885 615.079C311.76 614.807 311.627 614.566 311.486 614.357L311.423 614.346C311.356 614.424 311.305 614.59 311.272 614.843C311.249 615.095 311.232 615.363 311.222 615.646C311.212 615.929 311.205 616.185 311.201 616.415C311.196 616.635 311.195 616.755 311.197 616.776C311.187 616.923 311.096 617.044 310.926 617.141C310.766 617.236 310.618 617.279 310.481 617.268C310.334 617.258 310.199 617.2 310.076 617.094C309.963 616.977 309.871 616.864 309.8 616.754Z" fill="black"/>
<path d="M283.25 615.559C283.233 620.398 279.511 624.25 275 624.25C270.565 624.25 267.192 619.984 266.75 615.491C266.768 610.76 270.385 607.75 275 607.75C277.313 607.75 279.261 608.519 280.681 609.855C282.096 611.187 283.033 613.127 283.25 615.559Z" stroke="black" stroke-width="1.5"/>
<line x1="0.5" y1="-0.5" x2="2.4812" y2="-0.5" transform="matrix(0.301892 0.953342 -0.9436 0.331088 271.4 613.632)" stroke="black" stroke-linecap="round"/>
<path d="M276.8 612.684L277.327 614.496" stroke="black" stroke-linecap="round"/>
<path d="M273.436 618.694C277.7 620.263 278.909 616.225 278.909 616.225" stroke="black" stroke-linecap="round"/>
</svg>
