<svg width="400" height="700" viewBox="0 0 400 700" fill="none" xmlns="http://www.w3.org/2000/svg">
<rect x="12" y="42" width="376" height="656" rx="2" fill="#FFC931" stroke="#D3A41F" stroke-width="4"/>
<rect x="2" y="2" width="396" height="40" rx="10" fill="#FD5900" stroke="#BE3D48" stroke-width="4"/>
<rect x="42" y="479" width="316" height="176" rx="18" fill="#FF670C" stroke="#FF460C" stroke-width="4"/>
<path d="M73.3013 550.127L65.7569 550.613C63.761 550.741 62.2504 550.437 61.2251 549.702C60.2157 548.965 59.6576 547.766 59.5509 546.106L59.0704 538.633C58.9636 536.972 59.3635 535.712 60.2702 534.852C61.1929 533.991 62.6521 533.497 64.648 533.368L70.6356 532.983C70.939 532.964 71.1592 533.022 71.2962 533.157C71.4481 533.276 71.5338 533.487 71.5533 533.79L71.7397 536.688C71.7592 536.991 71.7017 537.22 71.5672 537.372C71.4477 537.508 71.2363 537.586 70.9329 537.606L65.9512 537.926C65.4562 537.958 65.0956 538.085 64.8695 538.308C64.6423 538.515 64.5415 538.818 64.5672 539.217L64.9353 544.942C64.9609 545.341 65.0678 545.631 65.2557 545.811C65.4596 545.99 65.7452 546.068 66.1125 546.044L68.4357 545.895L68.1954 542.159C68.1759 541.855 68.2259 541.636 68.3454 541.5C68.4799 541.347 68.6988 541.261 69.0022 541.241L72.7145 541.002C73.0179 540.983 73.2381 541.041 73.375 541.176C73.527 541.295 73.6127 541.506 73.6322 541.809L74.1081 549.21C74.1276 549.513 74.0701 549.741 73.9356 549.894C73.8161 550.03 73.6047 550.108 73.3013 550.127ZM81.6668 536.603L81.864 539.668L83.6603 539.553C84.0754 539.526 84.3482 539.404 84.4785 539.188C84.6078 538.955 84.6622 538.679 84.6417 538.359L84.5893 537.545C84.5688 537.226 84.48 536.967 84.323 536.769C84.1649 536.554 83.8783 536.461 83.4631 536.487L81.6668 536.603ZM81.6363 549.592L77.9479 549.829C77.6445 549.848 77.4169 549.799 77.2649 549.68C77.128 549.545 77.0497 549.325 77.0302 549.022L76.0322 533.502C76.0127 533.199 76.0627 532.979 76.1823 532.843C76.3167 532.69 76.5357 532.604 76.839 532.584L84.8146 532.071C86.6029 531.956 87.8564 532.253 88.5753 532.96C89.3091 533.65 89.714 534.586 89.79 535.768L89.8608 536.87C89.904 537.54 89.8371 538.122 89.6604 538.614C89.4985 539.089 89.1768 539.447 88.6952 539.686C89.5636 539.726 90.2807 540.033 90.8466 540.606C91.4285 541.178 91.7518 541.967 91.8165 542.973L92.143 548.05C92.1625 548.353 92.105 548.582 91.9706 548.735C91.8511 548.871 91.6396 548.948 91.3362 548.968L87.6239 549.206C87.3205 549.226 87.0929 549.177 86.941 549.058C86.804 548.923 86.7257 548.703 86.7062 548.4L86.4706 544.735C86.448 544.384 86.3597 544.133 86.2058 543.983C86.0667 543.815 85.8296 543.742 85.4943 543.764L82.1412 543.98L82.443 548.674C82.4625 548.977 82.4051 549.205 82.2706 549.358C82.1511 549.494 81.9396 549.572 81.6363 549.592ZM100.35 536.123L99.4589 539.836L103.219 539.594L101.859 536.026C101.786 535.886 101.708 535.787 101.624 535.728C101.556 535.669 101.474 535.642 101.378 535.648L100.779 535.686C100.684 535.693 100.598 535.73 100.522 535.799C100.462 535.867 100.405 535.975 100.35 536.123ZM99.7153 547.563C99.7348 547.867 99.6773 548.095 99.5429 548.248C99.4233 548.384 99.2119 548.461 98.9085 548.481L95.3878 548.707C95.0844 548.727 94.8568 548.677 94.7049 548.559C94.5679 548.423 94.4896 548.204 94.4701 547.9L94.0636 541.578C94.0328 541.099 94.0692 540.543 94.1728 539.911C94.2925 539.278 94.4853 538.536 94.7512 537.685L96.4853 532.115C96.5637 531.837 96.6945 531.628 96.8779 531.488C97.0773 531.347 97.3366 531.266 97.656 531.246L104.099 530.831C104.402 530.812 104.654 530.86 104.853 530.975C105.069 531.09 105.234 531.28 105.347 531.545L107.78 536.848C108.153 537.657 108.431 538.369 108.615 538.982C108.815 539.595 108.93 540.141 108.961 540.62L109.367 546.943C109.387 547.246 109.329 547.474 109.195 547.627C109.075 547.763 108.864 547.841 108.561 547.86L104.944 548.093C104.625 548.113 104.381 548.065 104.213 547.947C104.06 547.813 103.974 547.594 103.955 547.291L103.739 543.938L99.4997 544.21L99.7153 547.563ZM122.439 546.968L113.242 547.559C112.939 547.579 112.711 547.529 112.559 547.411C112.422 547.275 112.344 547.056 112.325 546.752L111.327 531.232C111.307 530.929 111.357 530.709 111.477 530.573C111.611 530.421 111.83 530.334 112.133 530.315L119.774 529.824C121.338 529.723 122.515 529.952 123.305 530.51C124.093 531.053 124.528 531.947 124.608 533.192L124.682 534.342C124.725 535.012 124.64 535.571 124.429 536.018C124.232 536.447 123.901 536.781 123.435 537.019C124.463 537.049 125.244 537.352 125.778 537.927C126.312 538.502 126.616 539.372 126.691 540.538L126.833 542.741C126.919 544.082 126.6 545.097 125.874 545.785C125.165 546.472 124.02 546.866 122.439 546.968ZM116.922 534.095L117.088 536.682L119.124 536.551C119.427 536.532 119.646 536.437 119.779 536.268C119.929 536.098 119.993 535.854 119.972 535.535L119.929 534.864C119.909 534.545 119.814 534.31 119.644 534.161C119.49 534.01 119.261 533.945 118.958 533.964L116.922 534.095ZM117.325 540.37L117.507 543.197L120.621 542.996C120.924 542.977 121.142 542.883 121.276 542.714C121.425 542.544 121.49 542.299 121.469 541.98L121.409 541.046C121.389 540.726 121.294 540.5 121.125 540.367C120.971 540.216 120.742 540.151 120.439 540.17L117.325 540.37ZM140.463 533.544L139.571 537.256L143.332 537.015L141.972 533.447C141.899 533.307 141.82 533.208 141.736 533.149C141.668 533.089 141.586 533.062 141.491 533.069L140.892 533.107C140.796 533.113 140.71 533.151 140.635 533.22C140.575 533.288 140.518 533.396 140.463 533.544ZM139.828 544.984C139.847 545.287 139.79 545.515 139.655 545.668C139.536 545.804 139.324 545.882 139.021 545.902L135.5 546.128C135.197 546.147 134.969 546.098 134.817 545.979C134.68 545.844 134.602 545.625 134.583 545.321L134.176 538.998C134.145 538.519 134.182 537.964 134.285 537.332C134.405 536.699 134.598 535.957 134.864 535.106L136.598 529.535C136.676 529.258 136.807 529.049 136.99 528.909C137.19 528.768 137.449 528.687 137.768 528.666L144.211 528.252C144.515 528.233 144.766 528.281 144.966 528.396C145.182 528.51 145.346 528.7 145.459 528.965L147.893 534.268C148.266 535.078 148.544 535.79 148.727 536.403C148.927 537.016 149.042 537.561 149.073 538.04L149.48 544.363C149.499 544.667 149.442 544.895 149.307 545.048C149.188 545.184 148.976 545.261 148.673 545.281L145.057 545.513C144.737 545.534 144.494 545.486 144.326 545.368C144.173 545.234 144.087 545.015 144.067 544.711L143.851 541.358L139.612 541.631L139.828 544.984ZM162.33 544.403L158.617 544.641C158.314 544.661 158.086 544.611 157.934 544.493C157.797 544.357 157.719 544.138 157.7 543.835L156.702 528.315C156.682 528.011 156.732 527.792 156.852 527.656C156.986 527.503 157.205 527.417 157.508 527.397L164.837 526.926C167.009 526.786 168.521 527.122 169.375 527.933C170.229 528.744 170.701 529.844 170.79 531.233L170.987 534.298C171.076 535.687 170.75 536.839 170.007 537.752C169.264 538.666 167.806 539.193 165.635 539.332L162.881 539.509L163.136 543.485C163.156 543.788 163.098 544.017 162.964 544.17C162.844 544.306 162.633 544.383 162.33 544.403ZM162.323 531.585L162.556 535.201L164.711 535.063C165.174 535.033 165.47 534.894 165.598 534.645C165.726 534.396 165.781 534.12 165.761 533.817L165.68 532.547C165.66 532.244 165.571 531.977 165.412 531.747C165.253 531.517 164.942 531.416 164.479 531.446L162.323 531.585ZM178.662 530.366L178.859 533.431L180.655 533.316C181.07 533.289 181.343 533.167 181.473 532.951C181.603 532.718 181.657 532.442 181.637 532.122L181.584 531.308C181.564 530.989 181.475 530.73 181.318 530.532C181.16 530.317 180.873 530.224 180.458 530.25L178.662 530.366ZM178.631 543.355L174.943 543.592C174.639 543.611 174.412 543.562 174.26 543.443C174.123 543.308 174.045 543.088 174.025 542.785L173.027 527.265C173.008 526.962 173.058 526.742 173.177 526.606C173.312 526.453 173.531 526.367 173.834 526.347L181.81 525.834C183.598 525.719 184.851 526.016 185.57 526.723C186.304 527.413 186.709 528.349 186.785 529.531L186.856 530.633C186.899 531.303 186.832 531.885 186.655 532.377C186.494 532.852 186.172 533.21 185.69 533.449C186.559 533.489 187.276 533.796 187.842 534.369C188.424 534.941 188.747 535.73 188.812 536.736L189.138 541.813C189.158 542.116 189.1 542.345 188.966 542.498C188.846 542.634 188.635 542.711 188.331 542.731L184.619 542.969C184.316 542.989 184.088 542.939 183.936 542.821C183.799 542.686 183.721 542.466 183.701 542.163L183.466 538.498C183.443 538.147 183.355 537.896 183.201 537.746C183.062 537.578 182.825 537.505 182.489 537.527L179.136 537.743L179.438 542.437C179.458 542.74 179.4 542.968 179.266 543.121C179.146 543.257 178.935 543.335 178.631 543.355ZM192.359 542.472C192.055 542.491 191.828 542.442 191.676 542.323C191.539 542.188 191.461 541.968 191.441 541.665L191.258 538.815C191.238 538.512 191.288 538.292 191.408 538.156C191.542 538.003 191.761 537.917 192.065 537.897L194.436 537.745L193.918 529.697L191.547 529.85C191.244 529.869 191.016 529.82 190.864 529.701C190.727 529.566 190.649 529.346 190.63 529.043L190.443 526.145C190.424 525.842 190.474 525.622 190.593 525.486C190.728 525.333 190.947 525.247 191.25 525.227L201.453 524.571C201.756 524.552 201.976 524.61 202.113 524.745C202.265 524.864 202.351 525.075 202.371 525.378L202.557 528.276C202.576 528.579 202.519 528.808 202.384 528.961C202.265 529.097 202.054 529.174 201.75 529.194L199.427 529.343L199.944 537.391L202.268 537.241C202.571 537.222 202.791 537.28 202.928 537.415C203.08 537.534 203.166 537.745 203.185 538.048L203.369 540.898C203.388 541.201 203.331 541.43 203.196 541.583C203.077 541.718 202.865 541.796 202.562 541.816L192.359 542.472ZM218.572 540.786L206.692 541.55C206.389 541.57 206.161 541.52 206.01 541.402C205.873 541.266 205.794 541.047 205.775 540.743L205.568 537.534C205.549 537.231 205.58 536.964 205.661 536.734C205.742 536.489 205.879 536.247 206.072 536.011L211.437 528.571L206.312 528.9C206.009 528.92 205.781 528.87 205.629 528.752C205.492 528.616 205.414 528.397 205.394 528.094L205.208 525.196C205.188 524.892 205.238 524.673 205.358 524.537C205.492 524.384 205.711 524.297 206.015 524.278L217.032 523.57C217.335 523.55 217.556 523.608 217.693 523.744C217.844 523.862 217.93 524.073 217.95 524.376L218.179 527.945C218.2 528.264 218.17 528.547 218.089 528.792C218.008 529.022 217.871 529.255 217.677 529.492L212.554 536.58L218.278 536.212C218.581 536.192 218.801 536.25 218.938 536.386C219.09 536.504 219.176 536.715 219.195 537.018L219.379 539.869C219.398 540.172 219.341 540.4 219.206 540.553C219.087 540.689 218.875 540.767 218.572 540.786ZM234.167 539.783L223.054 540.498C222.751 540.517 222.523 540.468 222.372 540.35C222.235 540.214 222.156 539.995 222.137 539.691L221.139 524.171C221.119 523.868 221.169 523.648 221.289 523.512C221.423 523.359 221.642 523.273 221.946 523.254L233.059 522.539C233.362 522.519 233.582 522.577 233.719 522.713C233.871 522.831 233.957 523.042 233.976 523.346L234.156 526.148C234.176 526.451 234.119 526.68 233.984 526.832C233.865 526.968 233.653 527.046 233.35 527.066L226.739 527.491L226.858 529.335L231.528 529.035C231.832 529.015 232.052 529.073 232.189 529.209C232.341 529.327 232.426 529.538 232.446 529.841L232.611 532.404C232.63 532.707 232.573 532.936 232.438 533.089C232.319 533.225 232.107 533.302 231.804 533.322L227.134 533.622L227.266 535.682L233.876 535.257C234.18 535.237 234.4 535.295 234.537 535.431C234.689 535.549 234.775 535.76 234.794 536.064L234.974 538.866C234.994 539.169 234.936 539.397 234.802 539.55C234.682 539.686 234.471 539.764 234.167 539.783ZM242.753 532.93L239.04 533.169C238.737 533.189 238.509 533.139 238.357 533.021C238.22 532.885 238.134 532.666 238.099 532.364L237.145 523.142C237.109 522.84 237.151 522.621 237.271 522.485C237.389 522.333 237.6 522.247 237.904 522.227L242.478 521.933C242.782 521.914 243.002 521.972 243.139 522.107C243.275 522.227 243.345 522.439 243.348 522.743L243.607 532.01C243.611 532.314 243.545 532.543 243.411 532.696C243.275 532.833 243.056 532.911 242.753 532.93ZM243.515 539.182L239.108 539.466C238.805 539.485 238.577 539.436 238.425 539.317C238.289 539.182 238.21 538.962 238.191 538.659L237.989 535.521C237.969 535.218 238.02 534.998 238.139 534.862C238.273 534.709 238.492 534.623 238.796 534.604L243.203 534.32C243.506 534.301 243.726 534.359 243.863 534.494C244.015 534.613 244.101 534.824 244.12 535.127L244.322 538.265C244.342 538.568 244.284 538.796 244.15 538.949C244.03 539.085 243.819 539.163 243.515 539.182Z" fill="black"/>
<path d="M69.7116 515.668L69.8602 512.296L71.7221 515.112C72.3195 516.015 73.4307 516.431 74.4745 516.142L77.7275 515.241L75.6252 517.882C74.9506 518.729 74.8984 519.915 75.4958 520.818L77.3577 523.634L74.1965 522.45C73.1822 522.071 72.0387 522.387 71.3641 523.235L69.2618 525.875L69.4104 522.503C69.4581 521.421 68.8036 520.431 67.7893 520.052L64.6281 518.868L67.8811 517.968C68.9249 517.679 69.6639 516.75 69.7116 515.668Z" fill="#F9BE02" stroke="#F9C521" stroke-width="3"/>
<path d="M99.3918 503.323L102.447 498.295L102.92 504.159C103.007 505.24 103.781 506.141 104.835 506.391L110.555 507.746L105.121 510.025C104.124 510.443 103.509 511.454 103.596 512.531L104.07 518.408L100.25 513.948C99.5435 513.123 98.3857 512.849 97.3844 513.268L91.9687 515.539L95.0301 510.501C95.5915 509.577 95.4955 508.397 94.7923 507.576L90.9593 503.102L96.6787 504.457C97.7333 504.707 98.8289 504.249 99.3918 503.323Z" fill="#F9BE02" stroke="#F9C521" stroke-width="3"/>
<path d="M227.276 553.564L232.174 550.305L230.118 555.817C229.739 556.832 230.058 557.976 230.907 558.65L235.513 562.301L229.626 562.062C228.546 562.018 227.56 562.674 227.182 563.686L225.121 569.21L223.551 563.551C223.261 562.505 222.328 561.766 221.243 561.722L215.376 561.484L220.284 558.217C221.184 557.619 221.597 556.509 221.308 555.468L219.732 549.79L224.338 553.442C225.187 554.115 226.374 554.165 227.276 553.564Z" fill="#F9BE02" stroke="#F9C521" stroke-width="3"/>
<rect x="266" y="495" width="76" height="52" rx="10" fill="#FF9C6F" stroke="#D15217" stroke-width="4"/>
<line x1="321" y1="523" x2="321" y2="507" stroke="black" stroke-width="4" stroke-linecap="round"/>
<line x1="312" y1="535" x2="328" y2="535" stroke="black" stroke-width="4" stroke-linecap="round"/>
<circle cx="291" cy="521" r="12" fill="#F9BE02" stroke="black" stroke-width="4"/>
<path d="M293.768 527H289.864C288.531 527 287.539 526.733 286.888 526.2C286.248 525.667 285.928 524.845 285.928 523.736V518.76C285.928 517.651 286.248 516.829 286.888 516.296C287.539 515.752 288.531 515.48 289.864 515.48H293.768C293.971 515.48 294.115 515.528 294.2 515.624C294.296 515.709 294.344 515.853 294.344 516.056V517.992C294.344 518.195 294.296 518.344 294.2 518.44C294.115 518.525 293.971 518.568 293.768 518.568H290.552C290.221 518.568 289.976 518.637 289.816 518.776C289.656 518.904 289.576 519.101 289.576 519.368V523.176C289.576 523.443 289.656 523.64 289.816 523.768C289.976 523.885 290.221 523.944 290.552 523.944H293.768C293.971 523.944 294.115 523.992 294.2 524.088C294.296 524.173 294.344 524.317 294.344 524.52V526.424C294.344 526.627 294.296 526.776 294.2 526.872C294.115 526.957 293.971 527 293.768 527Z" fill="black"/>
<rect x="70" y="581" width="165" height="58" rx="10" fill="#FF9C6F" stroke="#D15217" stroke-width="4"/>
<path d="M110.16 615H107.68C107.477 615 107.328 614.957 107.232 614.872C107.147 614.776 107.104 614.627 107.104 614.424V604.056C107.104 603.853 107.147 603.709 107.232 603.624C107.328 603.528 107.477 603.48 107.68 603.48H112.576C114.027 603.48 115.019 603.768 115.552 604.344C116.085 604.92 116.352 605.672 116.352 606.6V608.648C116.352 609.576 116.085 610.328 115.552 610.904C115.019 611.48 114.027 611.768 112.576 611.768H110.736V614.424C110.736 614.627 110.688 614.776 110.592 614.872C110.507 614.957 110.363 615 110.16 615ZM110.704 606.472V608.888H112.144C112.453 608.888 112.656 608.808 112.752 608.648C112.848 608.488 112.896 608.307 112.896 608.104V607.256C112.896 607.053 112.848 606.872 112.752 606.712C112.656 606.552 112.453 606.472 112.144 606.472H110.704ZM121.626 606.36V608.408H122.826C123.104 608.408 123.29 608.339 123.386 608.2C123.482 608.051 123.53 607.869 123.53 607.656V607.112C123.53 606.899 123.482 606.723 123.386 606.584C123.29 606.435 123.104 606.36 122.826 606.36H121.626ZM121.05 615H118.586C118.384 615 118.234 614.957 118.138 614.872C118.053 614.776 118.01 614.627 118.01 614.424V604.056C118.01 603.853 118.053 603.709 118.138 603.624C118.234 603.528 118.384 603.48 118.586 603.48H123.914C125.109 603.48 125.93 603.731 126.378 604.232C126.837 604.723 127.066 605.363 127.066 606.152V606.888C127.066 607.336 126.997 607.72 126.858 608.04C126.73 608.349 126.501 608.573 126.17 608.712C126.746 608.776 127.21 609.011 127.562 609.416C127.925 609.821 128.106 610.36 128.106 611.032V614.424C128.106 614.627 128.058 614.776 127.962 614.872C127.877 614.957 127.733 615 127.53 615H125.05C124.848 615 124.698 614.957 124.602 614.872C124.517 614.776 124.474 614.627 124.474 614.424V611.976C124.474 611.741 124.426 611.571 124.33 611.464C124.245 611.347 124.09 611.288 123.866 611.288H121.626V614.424C121.626 614.627 121.578 614.776 121.482 614.872C121.397 614.957 121.253 615 121.05 615ZM130.221 615C130.018 615 129.869 614.957 129.773 614.872C129.688 614.776 129.645 614.627 129.645 614.424V612.52C129.645 612.317 129.688 612.173 129.773 612.088C129.869 611.992 130.018 611.944 130.221 611.944H131.805V606.568H130.221C130.018 606.568 129.869 606.525 129.773 606.44C129.688 606.344 129.645 606.195 129.645 605.992V604.056C129.645 603.853 129.688 603.709 129.773 603.624C129.869 603.528 130.018 603.48 130.221 603.48H137.037C137.24 603.48 137.384 603.528 137.469 603.624C137.565 603.709 137.613 603.853 137.613 604.056V605.992C137.613 606.195 137.565 606.344 137.469 606.44C137.384 606.525 137.24 606.568 137.037 606.568H135.485V611.944H137.037C137.24 611.944 137.384 611.992 137.469 612.088C137.565 612.173 137.613 612.317 137.613 612.52V614.424C137.613 614.627 137.565 614.776 137.469 614.872C137.384 614.957 137.24 615 137.037 615H130.221ZM147.732 615H139.796C139.594 615 139.444 614.957 139.348 614.872C139.263 614.776 139.22 614.627 139.22 614.424V612.28C139.22 612.077 139.252 611.901 139.316 611.752C139.38 611.592 139.482 611.437 139.62 611.288L143.508 606.568H140.084C139.882 606.568 139.732 606.525 139.636 606.44C139.551 606.344 139.508 606.195 139.508 605.992V604.056C139.508 603.853 139.551 603.709 139.636 603.624C139.732 603.528 139.882 603.48 140.084 603.48H147.444C147.647 603.48 147.791 603.528 147.876 603.624C147.972 603.709 148.02 603.853 148.02 604.056V606.44C148.02 606.653 147.988 606.84 147.924 607C147.86 607.149 147.759 607.299 147.62 607.448L143.908 611.944H147.732C147.935 611.944 148.079 611.992 148.164 612.088C148.26 612.173 148.308 612.317 148.308 612.52V614.424C148.308 614.627 148.26 614.776 148.164 614.872C148.079 614.957 147.935 615 147.732 615ZM158.151 615H150.727C150.524 615 150.375 614.957 150.279 614.872C150.194 614.776 150.151 614.627 150.151 614.424V604.056C150.151 603.853 150.194 603.709 150.279 603.624C150.375 603.528 150.524 603.48 150.727 603.48H158.151C158.354 603.48 158.498 603.528 158.583 603.624C158.679 603.709 158.727 603.853 158.727 604.056V605.928C158.727 606.131 158.679 606.28 158.583 606.376C158.498 606.461 158.354 606.504 158.151 606.504H153.735V607.736H156.855C157.058 607.736 157.202 607.784 157.287 607.88C157.383 607.965 157.431 608.109 157.431 608.312V610.024C157.431 610.227 157.383 610.376 157.287 610.472C157.202 610.557 157.058 610.6 156.855 610.6H153.735V611.976H158.151C158.354 611.976 158.498 612.024 158.583 612.12C158.679 612.205 158.727 612.349 158.727 612.552V614.424C158.727 614.627 158.679 614.776 158.583 614.872C158.498 614.957 158.354 615 158.151 615ZM173.973 611.976C173.973 612.467 173.899 612.915 173.749 613.32C173.611 613.715 173.355 614.056 172.981 614.344C172.619 614.621 172.112 614.84 171.461 615C170.821 615.16 170.005 615.24 169.013 615.24C168.021 615.24 167.2 615.16 166.549 615C165.899 614.84 165.387 614.621 165.013 614.344C164.651 614.056 164.395 613.715 164.245 613.32C164.107 612.915 164.037 612.467 164.037 611.976V606.52C164.037 606.029 164.107 605.587 164.245 605.192C164.395 604.787 164.651 604.44 165.013 604.152C165.387 603.864 165.899 603.64 166.549 603.48C167.2 603.32 168.021 603.24 169.013 603.24C170.005 603.24 170.821 603.32 171.461 603.48C172.112 603.64 172.619 603.864 172.981 604.152C173.355 604.44 173.611 604.787 173.749 605.192C173.899 605.587 173.973 606.029 173.973 606.52V611.976ZM167.669 611.4C167.669 611.613 167.749 611.795 167.909 611.944C168.069 612.083 168.437 612.152 169.013 612.152C169.589 612.152 169.957 612.083 170.117 611.944C170.277 611.795 170.357 611.613 170.357 611.4V607.096C170.357 606.893 170.277 606.723 170.117 606.584C169.957 606.435 169.589 606.36 169.013 606.36C168.437 606.36 168.069 606.435 167.909 606.584C167.749 606.723 167.669 606.893 167.669 607.096V611.4ZM185.818 611.976C185.818 612.467 185.744 612.915 185.594 613.32C185.456 613.715 185.2 614.056 184.826 614.344C184.464 614.621 183.962 614.84 183.322 615C182.682 615.16 181.866 615.24 180.874 615.24C179.882 615.24 179.066 615.16 178.426 615C177.786 614.84 177.28 614.621 176.906 614.344C176.544 614.056 176.288 613.715 176.138 613.32C176 612.915 175.93 612.467 175.93 611.976V604.056C175.93 603.853 175.973 603.709 176.058 603.624C176.154 603.528 176.304 603.48 176.506 603.48H179.018C179.221 603.48 179.365 603.528 179.45 603.624C179.546 603.709 179.594 603.853 179.594 604.056V611.352C179.594 611.565 179.674 611.747 179.834 611.896C179.994 612.035 180.352 612.104 180.906 612.104C181.472 612.104 181.834 612.035 181.994 611.896C182.154 611.747 182.234 611.565 182.234 611.352V604.056C182.234 603.853 182.277 603.709 182.362 603.624C182.458 603.528 182.608 603.48 182.81 603.48H185.242C185.445 603.48 185.589 603.528 185.674 603.624C185.77 603.709 185.818 603.853 185.818 604.056V611.976ZM193.388 615H190.796C190.593 615 190.444 614.957 190.348 614.872C190.262 614.776 190.22 614.627 190.22 614.424V606.568H187.868C187.665 606.568 187.516 606.525 187.42 606.44C187.334 606.344 187.292 606.195 187.292 605.992V604.056C187.292 603.853 187.334 603.709 187.42 603.624C187.516 603.528 187.665 603.48 187.868 603.48H196.316C196.518 603.48 196.662 603.528 196.748 603.624C196.844 603.709 196.892 603.853 196.892 604.056V605.992C196.892 606.195 196.844 606.344 196.748 606.44C196.662 606.525 196.518 606.568 196.316 606.568H193.964V614.424C193.964 614.627 193.916 614.776 193.82 614.872C193.734 614.957 193.59 615 193.388 615Z" fill="black"/>
<rect x="252.115" y="573.818" width="81.5643" height="59.6542" rx="2" transform="rotate(-3.39381 252.115 573.818)" fill="#FFEDB5" stroke="#ABA5A5" stroke-width="4"/>
<path d="M271.821 567.872L312.729 563.76L310.569 570.12L310.237 571.095L310.839 571.931L313.576 575.736L273.021 579.812L275.829 574.629L276.476 573.434L275.604 572.392L271.821 567.872Z" fill="#00C9B8" stroke="#2A9B92" stroke-width="4"/>
<path d="M313.25 603.032C313.233 613.686 305.033 622.25 295 622.25C285.043 622.25 277.692 612.721 276.75 602.964C276.768 592.421 284.862 585.75 295 585.75C300.075 585.75 304.398 587.44 307.565 590.421C310.727 593.398 312.783 597.706 313.25 603.032Z" stroke="black" stroke-width="1.5"/>
<line x1="0.5" y1="-0.5" x2="5.79365" y2="-0.5" transform="matrix(0.301892 0.953342 -0.9436 0.331088 287.4 599)" stroke="black" stroke-linecap="round"/>
<path d="M298.8 597L299.913 600.825" stroke="black" stroke-linecap="round"/>
<path d="M291.699 609.687C300.7 613 303.253 604.475 303.253 604.475" stroke="black" stroke-linecap="round"/>
<path d="M76 70H324C342.778 70 358 85.2223 358 104V356H42V104C42 85.2223 57.2223 70 76 70Z" fill="#90D4F7" stroke="#7EBBDB" stroke-width="4"/>
<mask id="path-22-inside-1_144_111" fill="white">
<path d="M40 102C40 99.7909 41.7909 98 44 98H356C358.209 98 360 99.7909 360 102V110C360 112.209 358.209 114 356 114H44C41.7909 114 40 112.209 40 110V102Z"/>
</mask>
<path d="M40 102C40 99.7909 41.7909 98 44 98H356C358.209 98 360 99.7909 360 102V110C360 112.209 358.209 114 356 114H44C41.7909 114 40 112.209 40 110V102Z" fill="#B6B5B9"/>
<path d="M40 102C40 97.5817 43.5817 94 48 94H352C356.418 94 360 97.5817 360 102C360 102 358.209 102 356 102H44C41.7909 102 40 102 40 102ZM360 110C360 114.418 356.418 118 352 118H48C43.5817 118 40 114.418 40 110C40 110 41.7909 110 44 110H356C358.209 110 360 110 360 110ZM40 114V98V114ZM360 98V114V98Z" fill="#505050" mask="url(#path-22-inside-1_144_111)"/>
<mask id="path-24-inside-2_144_111" fill="white">
<path d="M38 417H364V449C364 455.627 358.627 461 352 461H50C43.3726 461 38 455.627 38 449V417Z"/>
</mask>
<path d="M38 417H364V449C364 455.627 358.627 461 352 461H50C43.3726 461 38 455.627 38 449V417Z" fill="#4C0EB1"/>
<path d="M38 417H364H38ZM368 449C368 457.837 360.837 465 352 465H50C41.1634 465 34 457.837 34 449H42C42 453.418 45.5817 457 50 457H352C356.418 457 360 453.418 360 449H368ZM50 465C41.1634 465 34 457.837 34 449V417H42V449C42 453.418 45.5817 457 50 457V465ZM368 417V449C368 457.837 360.837 465 352 465V457C356.418 457 360 453.418 360 449V417H368Z" fill="#270C53" mask="url(#path-24-inside-2_144_111)"/>
<path d="M66.6424 372H335.358C339.243 372 342.776 374.25 344.419 377.771L361.219 413.771C364.313 420.401 359.474 428 352.158 428H49.8423C42.5262 428 37.6866 420.401 40.7805 413.771L57.5805 377.771C59.2235 374.25 62.7571 372 66.6424 372Z" fill="#9351FF" stroke="#6637B4" stroke-width="4"/>
</svg>
