<svg width="60" height="60" viewBox="0 0 60 60" fill="none" xmlns="http://www.w3.org/2000/svg">
<circle cx="30" cy="30" r="28" fill="white" stroke="black" stroke-width="4"/>
<path d="M33.592 33.264L24.92 34.448C24.5147 34.4907 24.216 34.4373 24.024 34.288C23.8533 34.1387 23.736 33.8613 23.672 33.456L23 29.232C22.936 28.8267 22.9893 28.5173 23.16 28.304C23.352 28.0907 23.6507 27.9627 24.056 27.92L30.424 27.024C30.744 26.9813 30.968 26.8853 31.096 26.736C31.224 26.5867 31.288 26.352 31.288 26.032C31.288 25.7333 31.2133 25.5093 31.064 25.36C30.9147 25.2107 30.7013 25.136 30.424 25.136H21.592C21.1867 25.136 20.888 25.0507 20.696 24.88C20.5253 24.688 20.44 24.3893 20.44 23.984V20.112C20.44 19.7067 20.5253 19.4187 20.696 19.248C20.888 19.056 21.1867 18.96 21.592 18.96H31.928C33.9973 18.96 35.6187 19.4507 36.792 20.432C37.9653 21.392 38.552 22.7787 38.552 24.592V27.952C38.552 29.744 38.104 31.024 37.208 31.792C36.312 32.56 35.1067 33.0507 33.592 33.264ZM30.008 42H24.152C23.7467 42 23.448 41.9147 23.256 41.744C23.0853 41.552 23 41.2533 23 40.848V36.656C23 36.2507 23.0853 35.9627 23.256 35.792C23.448 35.6 23.7467 35.504 24.152 35.504H30.008C30.4133 35.504 30.7013 35.6 30.872 35.792C31.064 35.9627 31.16 36.2507 31.16 36.656V40.848C31.16 41.2533 31.064 41.552 30.872 41.744C30.7013 41.9147 30.4133 42 30.008 42Z" fill="black"/>
</svg>
