<svg width="128" height="93" viewBox="0 0 128 93" fill="none" xmlns="http://www.w3.org/2000/svg">
<path d="M40.9756 15.2724C45.8845 21.9654 43.8397 32.3602 35.612 38.3947C27.3843 44.4292 16.8554 43.2564 11.9465 36.5634C7.03759 29.8704 9.08246 19.4756 17.3101 13.4411C25.5378 7.40664 36.0668 8.57938 40.9756 15.2724Z" fill="#A8624C" stroke="#764B3D" stroke-width="4"/>
<ellipse cx="31.7506" cy="27.3669" rx="10" ry="8.73643" transform="rotate(-36.2577 31.7506 27.3669)" fill="#D68D75"/>
<path d="M86.9465 15.2724C82.0376 21.9654 84.0824 32.3602 92.3101 38.3947C100.538 44.4292 111.067 43.2564 115.976 36.5634C120.885 29.8704 118.84 19.4756 110.612 13.4411C102.384 7.40664 91.8554 8.57938 86.9465 15.2724Z" fill="#A8624C" stroke="#764B3D" stroke-width="4"/>
<ellipse cx="10" cy="8.73643" rx="10" ry="8.73643" transform="matrix(-0.806366 -0.591417 -0.591417 0.806366 109.981 26.2363)" fill="#D68D75"/>
<path d="M110.02 61.908C110.02 71.8894 105.302 78.8877 97.2752 83.5011C89.1231 88.1862 77.5236 90.408 64.02 90.408C50.5182 90.408 38.656 88.187 30.2434 83.489C21.9455 78.855 17.02 71.8471 17.02 61.908C17.02 51.7642 22.152 40.3639 30.7096 31.4673C39.2455 22.5933 51.0006 16.408 64.02 16.408C77.0315 16.408 88.529 22.5859 96.8107 31.4465C105.114 40.3298 110.02 51.7351 110.02 61.908Z" fill="#A8624C" stroke="#764B3D" stroke-width="4"/>
<path d="M85.02 74.444C85.02 84.4364 76.9346 88.5935 64.252 88.5935C51.5694 88.5935 43.02 84.4364 43.02 74.444C43.02 64.4517 51.5694 52.408 64.252 52.408C76.9346 52.408 85.02 64.4517 85.02 74.444Z" fill="#D68D75"/>
<ellipse cx="49.02" cy="50.908" rx="3.5" ry="4.5" fill="#323232"/>
<ellipse cx="78.02" cy="50.908" rx="3.5" ry="4.5" fill="#323232"/>
<path d="M69.02 60.908C69.02 63.3932 66.953 64.908 65.02 64.908C63.087 64.908 60.52 63.3932 60.52 60.908C60.52 58.4227 63.087 58.408 65.02 58.408C66.953 58.408 69.02 58.4227 69.02 60.908Z" fill="#323232"/>
</svg>
