<svg width="80" height="80" viewBox="0 0 80 80" fill="none" xmlns="http://www.w3.org/2000/svg">
<circle cx="40" cy="40" r="38" fill="url(#paint0_linear_159_1983)" stroke="#0B79B3" stroke-width="4"/>
<path d="M24.12 56V32.192H31.176V56H24.12ZM27.624 28.688C26.44 28.688 25.48 28.352 24.744 27.68C24.008 27.008 23.64 26.112 23.64 24.992C23.64 23.872 24.008 22.976 24.744 22.304C25.48 21.632 26.44 21.296 27.624 21.296C28.808 21.296 29.768 21.632 30.504 22.304C31.24 22.976 31.608 23.872 31.608 24.992C31.608 26.112 31.24 27.008 30.504 27.68C29.768 28.352 28.808 28.688 27.624 28.688ZM37.4325 56V32.192H43.1925L43.6725 35.216H43.8645C44.8565 34.224 45.9765 33.376 47.2245 32.672C48.4725 31.968 49.8965 31.616 51.4965 31.616C54.1205 31.616 56.0085 32.48 57.1605 34.208C58.3125 35.904 58.8885 38.24 58.8885 41.216V56H51.8325V42.128C51.8325 40.4 51.5925 39.216 51.1125 38.576C50.6645 37.936 49.9285 37.616 48.9045 37.616C48.0085 37.616 47.2405 37.824 46.6005 38.24C45.9605 38.624 45.2565 39.184 44.4885 39.92V56H37.4325Z" fill="white"/>
<defs>
<linearGradient id="paint0_linear_159_1983" x1="-36" y1="-14.5" x2="125" y2="93.5" gradientUnits="userSpaceOnUse">
<stop stop-color="#0077B5"/>
<stop offset="1" stop-color="#148CCB" stop-opacity="0.65"/>
</linearGradient>
</defs>
</svg>
